<svg width="20" height="20" viewBox="0 0 20 20" fill="none" xmlns="http://www.w3.org/2000/svg">
<rect x="3.11597" y="9.32959" width="13.7681" height="8.94927" rx="3.30435" stroke="black" stroke-width="1.5"/>
<path d="M3.11597 12.4272C3.11597 12.4272 5.18718 11.7388 6.558 11.7388C7.92881 11.7388 8.62921 12.4272 10 12.4272C11.3708 12.4272 12.0712 11.7388 13.4421 11.7388C14.8129 11.7388 16.8841 12.4272 16.8841 12.4272" stroke="black" stroke-width="1.5"/>
<path d="M7.93481 7.95242C7.93481 7.56858 7.93481 7.37666 7.96656 7.21706C8.09693 6.56166 8.60926 6.04932 9.26467 5.91895C9.42426 5.88721 9.61619 5.88721 10 5.88721V5.88721C10.3839 5.88721 10.5758 5.88721 10.7354 5.91895C11.3908 6.04932 11.9031 6.56166 12.0335 7.21706C12.0652 7.37666 12.0652 7.56858 12.0652 7.95242V9.32924H7.93481V7.95242Z" stroke="black" stroke-width="1.5"/>
<path d="M10.8334 3.80404C10.8334 4.95463 10.0001 5.88737 10.0001 5.88737C10.0001 5.88737 9.16675 4.95463 9.16675 3.80404C9.16675 2.65344 10.0001 1.7207 10.0001 1.7207C10.0001 1.7207 10.8334 2.65344 10.8334 3.80404Z" stroke="black" stroke-width="1.5" stroke-linejoin="round"/>
</svg>
