<svg width="25" height="24" viewBox="0 0 25 24" fill="none" xmlns="http://www.w3.org/2000/svg">
<path d="M6.66895 14.6763V16.9701C6.66895 19.1328 6.66895 20.2141 7.3408 20.886C8.01265 21.5578 9.09398 21.5578 11.2566 21.5578H14.3151C16.4778 21.5578 17.5591 21.5578 18.2309 20.886C18.9028 20.2141 18.9028 19.1328 18.9028 16.9701V14.6763" stroke="white" stroke-width="1.5" stroke-linecap="round"/>
<path d="M6.66902 14.6128C4.49926 14.2488 2.84595 12.3617 2.84595 10.0885C2.84595 7.55483 4.89993 5.50085 7.43364 5.50085C7.74846 5.50085 8.05587 5.53257 8.35286 5.59297" stroke="white" stroke-width="1.5" stroke-linecap="round"/>
<path d="M19.0574 14.6128C21.2271 14.2488 22.8804 12.3617 22.8804 10.0885C22.8804 7.55483 20.8265 5.50085 18.2928 5.50085C17.9779 5.50085 17.6705 5.53257 17.3735 5.59297" stroke="white" stroke-width="1.5" stroke-linecap="round"/>
<path d="M8.34277 8.17699C8.24842 7.81042 8.19824 7.4261 8.19824 7.03007C8.19824 4.49636 10.2522 2.44238 12.7859 2.44238C15.3196 2.44238 17.3736 4.49636 17.3736 7.03007C17.3736 7.4261 17.3234 7.81042 17.2291 8.17699" stroke="white" stroke-width="1.5" stroke-linecap="round"/>
<path d="M6.66895 18.1171H18.9028" stroke="white" stroke-width="1.5"/>
<path d="M12.7559 10.7329V13.1355" stroke="white" stroke-width="1.5" stroke-linecap="round"/>
<path d="M8.50697 10.9343C8.31491 11.3633 8.66702 12.9989 9.08316 13.267" stroke="white" stroke-width="1.5" stroke-linecap="round"/>
<path d="M17.3197 10.9343C17.5118 11.3633 17.1596 12.9989 16.7435 13.267" stroke="white" stroke-width="1.5" stroke-linecap="round"/>
</svg>
