<svg xmlns="http://www.w3.org/2000/svg" width="24.602" height="23" viewBox="0 0 24.602 23">
  <path id="Icon" d="M12.3,23a34.155,34.155,0,0,1-5.586-.474,2.98,2.98,0,0,1-1.807-1.051v.014a3.029,3.029,0,0,1-.729-1.973v-6.83A5.229,5.229,0,0,1,1.5,11.263l-.055-.055a5.128,5.128,0,0,1,.055-7.2V4A5.134,5.134,0,0,1,6.563,2.714l.085.024A1.919,1.919,0,0,1,7,2.858,6.411,6.411,0,0,1,12.3,0a6.324,6.324,0,0,1,3.429,1.01A6.244,6.244,0,0,1,17.6,2.858a2.586,2.586,0,0,1,.384-.132l.043-.012a5.1,5.1,0,0,1,1.443-.206,5.155,5.155,0,0,1,3.635,1.5l.041.055a5.126,5.126,0,0,1-.041,7.2,5.29,5.29,0,0,1-2.694,1.423v6.83a3.008,3.008,0,0,1-.715,1.959v.014a3.012,3.012,0,0,1-1.821,1.038A33.845,33.845,0,0,1,12.3,23ZM5.126,10.871h0a.942.942,0,0,1,.941.941v7.7a1.184,1.184,0,0,0,.275.75,1.093,1.093,0,0,0,.688.392,30.851,30.851,0,0,0,5.27.446,30.5,30.5,0,0,0,5.251-.446,1.14,1.14,0,0,0,.707-.392,1.212,1.212,0,0,0,.261-.75V11.9a3.484,3.484,0,0,1-.707-.227l-.021-.013a4.342,4.342,0,0,1-1.382-.907.58.58,0,0,1,0-.811.568.568,0,0,1,.811,0,3.2,3.2,0,0,0,1,.68l.041.014a3.146,3.146,0,0,0,1.2.233,3.3,3.3,0,0,0,2.308-.949A3.269,3.269,0,0,0,21.8,5.38l-.034-.034a3.277,3.277,0,0,0-2.3-.955,3.572,3.572,0,0,0-.9.123,3.25,3.25,0,0,0-.79.351l-.028.021a6.036,6.036,0,0,1,.185,1.463.563.563,0,1,1-1.127,0A4.55,4.55,0,0,0,14.7,2.6,4.43,4.43,0,0,0,8.212,4.639L8.2,4.666a4.623,4.623,0,0,0-.337,1.7A4.4,4.4,0,0,0,9.167,9.49a.547.547,0,0,1,.165.392.564.564,0,0,1-.566.571.619.619,0,0,1-.409-.158A5.621,5.621,0,0,1,6.735,6.363,5.511,5.511,0,0,1,6.92,4.928l-.049-.041a3.907,3.907,0,0,0-.824-.372,3.909,3.909,0,0,0-.921-.123,3.268,3.268,0,0,0-2.274.934l-.014.014-.006.006A3.245,3.245,0,0,0,2.8,9.882l.034.041a3.324,3.324,0,0,0,2.219.962l.075-.013Z" transform="translate(0 0)" fill="#e2283d"/>
</svg>
