<svg width="20" height="20" viewBox="0 0 20 20" fill="none" xmlns="http://www.w3.org/2000/svg">
<path d="M9.57687 2.32422H6.46104C3.89854 2.32422 2.29187 4.13839 2.29187 6.70672V13.6351C2.29187 16.2034 3.89104 18.0176 6.46104 18.0176H13.8144C16.3852 18.0176 17.9844 16.2034 17.9844 13.6351V10.2784" stroke="black" stroke-width="1.5" stroke-linecap="round" stroke-linejoin="round"/>
<path fill-rule="evenodd" clip-rule="evenodd" d="M7.3564 9.10074L13.5839 2.87324C14.3597 2.09824 15.6172 2.09824 16.3931 2.87324L17.4072 3.88741C18.1831 4.66324 18.1831 5.92158 17.4072 6.69658L11.1497 12.9541C10.8106 13.2932 10.3506 13.4841 9.87057 13.4841H6.7489L6.82723 10.3341C6.8389 9.87074 7.02807 9.42908 7.3564 9.10074Z" stroke="black" stroke-width="1.5" stroke-linecap="round" stroke-linejoin="round"/>
<path d="M12.6376 3.83545L16.4426 7.64045" stroke="black" stroke-width="1.5" stroke-linecap="round" stroke-linejoin="round"/>
</svg>
