<svg width="24" height="24" viewBox="0 0 24 24" fill="none" xmlns="http://www.w3.org/2000/svg">
<path d="M9.92676 9.34994C9.92676 8.93778 10.1178 8.54251 10.4578 8.25107C10.7978 7.95963 11.259 7.7959 11.7398 7.7959H12.2578C12.7387 7.7959 13.1998 7.95963 13.5398 8.25107C13.8798 8.54251 14.0709 8.93778 14.0709 9.34994C14.0899 9.68626 13.9992 10.0197 13.8124 10.3C13.6255 10.5802 13.3526 10.7922 13.0348 10.904C12.717 11.053 12.4442 11.3356 12.2573 11.7093C12.0705 12.083 11.9797 12.5276 11.9988 12.976" stroke="#70B9BE" stroke-width="1.5" stroke-linecap="round" stroke-linejoin="round"/>
<path d="M12 16.1968V16.2039" stroke="#70B9BE" stroke-width="2" stroke-linecap="round" stroke-linejoin="round"/>
<path fill-rule="evenodd" clip-rule="evenodd" d="M16.3341 2.75H7.66512C4.64412 2.75 2.75012 4.889 2.75012 7.916V16.084C2.75012 19.111 4.63512 21.25 7.66512 21.25H16.3331C19.3641 21.25 21.2501 19.111 21.2501 16.084V7.916C21.2501 4.889 19.3641 2.75 16.3341 2.75Z" stroke="#70B9BE" stroke-width="1.5" stroke-linecap="round" stroke-linejoin="round"/>
</svg>
