<svg width="14" height="14" viewBox="0 0 14 14" fill="none" xmlns="http://www.w3.org/2000/svg">
<path d="M10.9968 0.553698C10.5775 0.412998 10.1365 0.350698 9.69483 0.350698C8.72183 0.343698 7.77753 0.665698 6.99983 1.26C6.93683 1.2117 6.85983 1.169 6.78983 1.1277C6.71983 1.085 6.59383 0.980698 6.48883 0.924698L6.22283 0.805698C6.08283 0.728698 5.93653 0.672698 5.78183 0.622998C5.76783 0.609698 5.74683 0.594998 5.71883 0.581698H5.67753C5.26383 0.440998 4.83683 0.363998 4.39583 0.350698H4.31883C4.12283 0.350698 3.92753 0.363998 3.73083 0.392698H3.64683C3.43683 0.419998 3.22753 0.468998 3.02453 0.538998C0.412829 1.3937 -0.518171 4.2287 0.272828 6.7067C0.720828 7.973 1.44253 9.1217 2.38053 10.066C3.74483 11.382 5.23653 12.544 6.83883 13.538L7.02083 13.6507L7.19583 13.545C8.79253 12.544 10.2758 11.382 11.6275 10.073C12.5718 9.1287 13.2928 7.973 13.7338 6.7067C14.5115 4.2287 13.5805 1.3937 10.9968 0.553698Z" fill="#70B9BE"/>
<path d="M12.1098 4.85824C12.0888 5.15294 11.8438 5.38324 11.5568 5.39094C11.4028 5.37624 11.2558 5.30694 11.1578 5.18794C11.0598 5.06894 11.0115 4.91424 11.0248 4.75394V4.73224C11.0248 4.24294 10.7245 3.80124 10.2758 3.63324C9.98183 3.52894 9.82783 3.20694 9.92583 2.91294C10.0308 2.61894 10.3458 2.46424 10.6328 2.56294C11.5365 2.90594 12.1308 3.79424 12.1098 4.77494V4.85824Z" fill="#C6E3E5"/>
</svg>
