<?xml version="1.0" encoding="utf-8"?>
<!-- Generator: Adobe Illustrator 23.0.3, SVG Export Plug-In . SVG Version: 6.00 Build 0)  -->
<svg version="1.1" id="Layer_1" xmlns="http://www.w3.org/2000/svg" xmlns:xlink="http://www.w3.org/1999/xlink" x="0px" y="0px"
	 viewBox="0 0 62.4 62.4" style="enable-background:new 0 0 62.4 62.4;" xml:space="preserve">
<style type="text/css">
	.st0{fill:#191919;}
</style>
<path class="st0" d="M31.2,61.5c-16.7,0-30.3-13.6-30.3-30.3S14.5,0.8,31.2,0.8c16.7,0,30.3,13.6,30.3,30.3S47.9,61.5,31.2,61.5z
	 M31.2,4.8C16.7,4.8,4.8,16.7,4.8,31.2s11.8,26.3,26.3,26.3c14.5,0,26.3-11.8,26.3-26.3S45.7,4.8,31.2,4.8z"/>
<path class="st0" d="M31.7,47.9h-0.5c-10.1,0-14.7-7.5-15.6-11.4c-0.3-1.1,0.4-2.2,1.5-2.4c1.1-0.3,2.2,0.4,2.4,1.5
	c0.1,0.3,2.3,8.4,11.8,8.4h0.5c9.5,0,11.7-8,11.8-8.4c0.3-1.1,1.4-1.7,2.4-1.4c1.1,0.3,1.7,1.3,1.5,2.4
	C46.3,40.5,41.8,47.9,31.7,47.9z"/>
<circle class="st0" cx="20.7" cy="25.3" r="3.5"/>
<circle class="st0" cx="41.4" cy="25.3" r="3.5"/>
</svg>
