<svg width="155" height="47" viewBox="0 0 155 47" fill="none" xmlns="http://www.w3.org/2000/svg">
<path d="M21.2 36.84L14.12 26.8C17.68 26 20.56 22.28 20.56 18.4C20.56 13.84 17.68 9.28 11.28 9.28H0V36.84H6.28V27.16H7.56L13.88 36.84H21.2ZM10.44 14.76C13 14.76 14.24 16.72 14.24 18.56C14.24 20.4 13.04 22.2 10.28 22.2H6.28V14.76H10.44Z" fill="white"/>
<path d="M42.8475 27.12C42.8475 21.44 38.3675 17.68 33.0075 17.68C27.6475 17.68 22.9675 21.48 22.9675 27.56C22.9675 33.24 27.1275 37.32 33.0475 37.32C36.1675 37.32 39.3675 36.08 41.2075 34.08L38.1675 30.24C37.0075 31.36 35.2075 32.16 33.4475 32.16C31.2075 32.16 29.6475 31.04 29.0875 29.24H42.7675C42.8075 28.32 42.8475 27.64 42.8475 27.12ZM29.0475 25.76C29.6475 23.52 31.3675 22.68 33.1275 22.68C35.2475 22.68 36.8875 23.92 36.9675 25.76H29.0475Z" fill="white"/>
<path d="M55.8247 37.32C59.4247 37.32 62.1847 35.56 63.9847 32.92L59.3847 30.04C58.6647 31.16 57.1447 31.84 55.8647 31.84C53.1447 31.84 51.5447 29.8 51.5447 27.44C51.5447 25.12 53.1447 23.16 55.8647 23.16C57.1447 23.16 58.6647 23.84 59.3847 24.96L63.9847 22.08C62.1847 19.44 59.4247 17.68 55.8247 17.68C50.3847 17.68 45.5047 21.52 45.5047 27.44C45.5047 33.36 50.3847 37.32 55.8247 37.32Z" fill="white"/>
<path d="M73.4822 36.84V18.16H67.5622V36.84H73.4822Z" fill="white"/>
<path d="M90.1406 17.68C88.2206 17.68 85.7406 18.44 84.3806 20.16V18.16H78.4606V46.04H84.3806V34.76C85.7406 36.52 88.2206 37.32 90.1406 37.32C94.8206 37.32 99.2206 33.52 99.2206 27.48C99.2206 21.48 94.8206 17.68 90.1406 17.68ZM88.9006 31.84C86.6606 31.84 84.5806 29.92 84.5806 27.48C84.5806 25.08 86.6206 23.16 88.9006 23.16C91.2206 23.16 93.2206 25.12 93.2206 27.48C93.2206 29.88 91.2206 31.84 88.9006 31.84Z" fill="white"/>
<path d="M121.949 27.12C121.949 21.44 117.469 17.68 112.109 17.68C106.749 17.68 102.069 21.48 102.069 27.56C102.069 33.24 106.229 37.32 112.149 37.32C115.269 37.32 118.469 36.08 120.309 34.08L117.269 30.24C116.109 31.36 114.309 32.16 112.549 32.16C110.309 32.16 108.749 31.04 108.189 29.24H121.869C121.909 28.32 121.949 27.64 121.949 27.12ZM108.149 25.76C108.749 23.52 110.469 22.68 112.229 22.68C114.349 22.68 115.989 23.92 116.069 25.76H108.149Z" fill="white"/>
<path d="M131.646 36.84V8H125.726V36.84H131.646Z" fill="white"/>
<path d="M144.625 27.84L140.745 18.16H134.185L141.545 34.6L136.945 46.04H143.265L154.785 18.16H148.425L144.625 27.84Z" fill="white"/>
<path d="M69.3 15.1983C66.7688 14.7736 64.84 12.5722 64.84 9.92021C64.84 6.96433 67.2362 4.56812 70.1921 4.56812C70.5593 4.56812 70.918 4.60511 71.2644 4.67557" stroke="white" stroke-width="2" stroke-linecap="round"/>
<path d="M83.7527 15.1983C86.284 14.7736 88.2127 12.5722 88.2127 9.92021C88.2127 6.96433 85.8165 4.56812 82.8606 4.56812C82.4934 4.56812 82.1347 4.60511 81.7883 4.67557" stroke="white" stroke-width="2" stroke-linecap="round"/>
<path d="M71.2527 7.69012C71.1426 7.26246 71.0841 6.81411 71.0841 6.35209C71.0841 3.39621 73.4803 1 76.4362 1C79.3921 1 81.7883 3.39621 81.7883 6.35209C81.7883 6.81411 81.7298 7.26246 81.6197 7.69012" stroke="white" stroke-width="2" stroke-linecap="round"/>
<path d="M76.4011 10.6719V13.4748" stroke="white" stroke-width="2" stroke-linecap="round"/>
<path d="M71.4444 10.907C71.2203 11.4075 71.6311 13.3156 72.1166 13.6283" stroke="white" stroke-width="2" stroke-linecap="round"/>
<path d="M81.7255 10.907C81.9496 11.4075 81.5388 13.3156 81.0533 13.6283" stroke="white" stroke-width="2" stroke-linecap="round"/>
</svg>
