<svg width="24" height="25" viewBox="0 0 24 25" fill="none" xmlns="http://www.w3.org/2000/svg">
<path d="M9.98621 21.7481H13.9862C15.85 21.7481 16.7819 21.7481 17.5169 21.4436C18.4971 21.0376 19.2757 20.2589 19.6817 19.2788C19.9862 18.5437 19.9862 17.6119 19.9862 15.7481C19.9862 14.65 20.0485 11.893 19.9862 11.2915H4.11076C4.04848 11.893 3.98621 14.65 3.98621 15.7481C3.98621 17.6119 3.98621 18.5437 4.29069 19.2788C4.69666 20.2589 5.47536 21.0376 6.45547 21.4436C7.19056 21.7481 8.12244 21.7481 9.98621 21.7481Z" stroke="#70B9BE" stroke-width="1.5"/>
<path d="M10.3708 4.78017C11.3142 5.45568 11.9999 7.63833 11.9999 7.63833C11.9999 7.63833 9.68419 7.73228 8.74075 7.05678C7.79732 6.38127 7.69015 4.27749 7.69015 4.27749C7.69015 4.27749 9.42737 4.10467 10.3708 4.78017Z" stroke="#70B9BE" stroke-width="1.5" stroke-linecap="round" stroke-linejoin="round"/>
<path d="M13.6291 4.78017C12.6856 5.45568 11.9999 7.63833 11.9999 7.63833C11.9999 7.63833 14.3157 7.73228 15.2591 7.05678C16.2026 6.38127 16.3097 4.27749 16.3097 4.27749C16.3097 4.27749 14.5725 4.10467 13.6291 4.78017Z" stroke="#70B9BE" stroke-width="1.5" stroke-linecap="round" stroke-linejoin="round"/>
<path d="M10.5 8.24806V21.3841" stroke="#70B9BE" stroke-width="1.5"/>
<path d="M13.5 8.24806V21.3841" stroke="#70B9BE" stroke-width="1.5"/>
<path d="M19.8482 11.248H4.15173C3.59945 11.248 3.15173 10.8003 3.15173 10.248V9.24805C3.15173 8.69576 3.59945 8.24805 4.15173 8.24805H19.8482C20.4005 8.24805 20.8482 8.69576 20.8482 9.24805V10.248C20.8482 10.8003 20.4005 11.248 19.8482 11.248Z" stroke="#70B9BE" stroke-width="1.5"/>
</svg>
