<?xml version="1.0" encoding="UTF-8" standalone="no"?> <svg width="48" height="48" viewBox="0 0 48 48" fill="none" xmlns="http://www.w3.org/2000/svg">
<path d="M43.033 7.36098L40.639 4.96698C39.3785 3.70855 37.6701 3.00174 35.889 3.00174C34.1078 3.00174 32.3995 3.70855 31.139 4.96698L7.13299 28.977C5.98754 30.1212 5.19716 31.5721 4.85699 33.155L3.06599 41.483C2.97478 41.9062 2.97932 42.3445 3.07929 42.7658C3.17926 43.187 3.37213 43.5806 3.64378 43.9177C3.91544 44.2548 4.25902 44.527 4.64938 44.7142C5.03975 44.9015 5.46704 44.9991 5.89999 45C6.10704 45.0001 6.31352 44.9783 6.51599 44.935L14.845 43.144C16.4275 42.8036 17.878 42.0133 19.022 40.868L43.032 16.857C44.2898 15.5971 44.9964 13.8895 44.9966 12.1092C44.9968 10.3289 44.2906 8.62118 43.033 7.36098V7.36098ZM37.571 19.49L28.51 10.429L29.953 8.98598L39.014 18.047L37.571 19.49ZM8.74699 30.19L27.1 11.843L30.923 15.667L12.571 34.015L8.74699 30.19ZM6.09999 42.979C5.95154 43.0115 5.79728 43.0062 5.65143 42.9635C5.50557 42.9208 5.3728 42.8421 5.26533 42.7346C5.15787 42.6272 5.07917 42.4944 5.03647 42.3485C4.99377 42.2027 4.98845 42.0484 5.02099 41.9L5.73599 38.576L9.42099 42.261L6.09999 42.979ZM14.428 41.188L11.751 41.763L6.23699 36.252L6.81299 33.576C6.95095 32.9446 7.18358 32.3378 7.50299 31.776L16.226 40.5C15.6636 40.8184 15.0565 41.0504 14.425 41.188H14.428ZM17.813 39.253L13.988 35.429L32.333 17.081L36.157 20.9L17.813 39.253ZM41.619 15.442L40.428 16.633L31.367 7.57199L32.558 6.38099C33.4428 5.49828 34.6416 5.00257 35.8915 5.00257C37.1413 5.00257 38.3401 5.49828 39.225 6.38099L41.619 8.77498C42.5017 9.65983 42.9974 10.8586 42.9974 12.1085C42.9974 13.3583 42.5017 14.5571 41.619 15.442V15.442Z" fill="black"/>
</svg>
