<svg width="264" height="198" viewBox="0 0 264 198" fill="none" xmlns="http://www.w3.org/2000/svg">
<g opacity="0.5">
<path d="M37.499 129.999C58.2092 129.999 74.998 113.21 74.998 92.4993C74.998 71.789 58.2092 55 37.499 55C16.7889 55 0 71.789 0 92.4993C0 113.21 16.7889 129.999 37.499 129.999Z" fill="#3DA0A7"/>
<path d="M74.6295 87.2825C74.5268 88.582 74.369 89.8804 74.1191 91.1683C72.8429 97.7209 69.6762 103.966 66.0372 109.529C62.8536 114.396 58.8555 119.283 52.8431 120.441C51.0109 120.793 49.4477 120.357 48.2869 119.474C45.4909 120.25 42.678 120.642 39.6353 120.59C31.8033 120.458 23.5213 119.666 16.4498 116.015C9.4344 112.391 4.94388 107.064 2.2824 99.7067C1.45844 97.4297 0.646117 95.0456 0.00537109 92.615C0.0678571 113.273 16.83 130 37.5012 130C58.2116 130 75.0002 113.211 75.0002 92.5006C74.9981 90.7277 74.8668 88.9876 74.6295 87.2825Z" fill="#2B8C93"/>
<path d="M37.4989 128.831C57.5645 128.831 73.8308 112.565 73.8308 92.4992C73.8308 72.4335 57.5645 56.167 37.4989 56.167C17.4333 56.167 1.16699 72.4335 1.16699 92.4992C1.16699 112.565 17.4333 128.831 37.4989 128.831Z" fill="white"/>
<path d="M37.499 128.162C57.1949 128.162 73.1615 112.195 73.1615 92.4988C73.1615 72.8027 57.1949 56.8359 37.499 56.8359C17.8031 56.8359 1.83643 72.8027 1.83643 92.4988C1.83643 112.195 17.8031 128.162 37.499 128.162Z" fill="#BCE5E8"/>
<path d="M22.6323 124.914C27.1589 126.995 32.1916 128.163 37.4998 128.163C57.1956 128.163 73.1623 112.196 73.1623 92.4998C73.1623 81.1082 67.815 70.9727 59.5001 64.4434C60.3177 68.6702 60.6048 73.0305 60.8738 77.34C61.1671 82.0476 61.4573 86.8114 60.5952 91.4481C59.5308 97.1747 56.7529 102.448 53.529 107.3C50.0107 112.595 45.8326 117.586 40.4927 121.037C35.2418 124.43 28.7401 126.205 22.6323 124.914Z" fill="#8FD2D7"/>
<path d="M37.4987 121.121C53.3061 121.121 66.1205 108.306 66.1205 92.4987C66.1205 76.6912 53.3061 63.8767 37.4987 63.8767C21.6914 63.8767 8.87695 76.6912 8.87695 92.4987C8.87695 108.306 21.6914 121.121 37.4987 121.121Z" fill="#FFF6FA"/>
<path d="M37.4988 119.894C52.6282 119.894 64.8931 107.629 64.8931 92.4994C64.8931 77.3698 52.6282 65.1049 37.4988 65.1049C22.3693 65.1049 10.1045 77.3698 10.1045 92.4994C10.1045 107.629 22.3693 119.894 37.4988 119.894Z" fill="#ADDFE2"/>
<path d="M55.0202 110.022C64.6979 100.344 64.6979 84.653 55.0202 74.9752C45.3425 65.2975 29.6519 65.2975 19.9742 74.9752C10.2965 84.653 10.2965 100.344 19.9742 110.022C29.6519 119.699 45.3425 119.699 55.0202 110.022Z" fill="#FFF6FA"/>
<path d="M60.8005 94.1117C61.3025 80.8398 51.2789 69.6862 38.4122 69.1995C25.5454 68.7128 14.7079 79.0772 14.2059 92.3492C13.7038 105.621 23.7274 116.775 36.5942 117.261C49.4609 117.748 60.2985 107.384 60.8005 94.1117Z" fill="#F8D581"/>
<path d="M53.3315 84.5035C54.9587 84.5035 56.2778 83.5751 56.2778 82.4298C56.2778 81.2846 54.9587 80.3562 53.3315 80.3562C51.7044 80.3562 50.3853 81.2846 50.3853 82.4298C50.3853 83.5751 51.7044 84.5035 53.3315 84.5035Z" fill="#FFA25F"/>
<path d="M20.4446 99.7481C20.2763 100.96 21.0197 102.238 22.155 102.692C21.7409 103.739 21.581 104.884 21.6912 106.003C22.7386 106.321 23.8739 106.34 24.9308 106.059C24.9149 107.061 25.2782 108.063 25.9316 108.822C27.552 108.355 28.9997 107.254 29.794 105.766C30.5893 104.279 30.6921 102.418 29.9793 100.89C29.8078 100.523 29.5832 100.166 29.2486 99.9398C28.8175 99.6486 28.2679 99.6105 27.7479 99.6041C26.7524 99.5925 25.7558 99.6645 24.772 99.8181L20.4446 99.7481Z" fill="#7AAE56"/>
<path d="M29.0335 99.3829C26.3033 98.2042 23.0372 98.3493 20.4224 99.7642C21.2071 100.947 22.2619 101.95 23.4852 102.672C22.7226 103.583 22.2185 104.708 22.0459 105.883C23.2988 106.086 24.6088 105.916 25.7695 105.402C25.6054 106.418 25.8649 107.496 26.4727 108.327C28.0137 107.656 29.2528 106.323 29.8067 104.737C30.3616 103.15 30.2229 101.335 29.4349 99.851L29.0335 99.3829Z" fill="#85BB61"/>
<path d="M28.5349 96.9354C30.8628 96.9354 32.7499 95.6257 32.7499 94.0102C32.7499 92.3947 30.8628 91.0851 28.5349 91.0851C26.207 91.0851 24.3198 92.3947 24.3198 94.0102C24.3198 95.6257 26.207 96.9354 28.5349 96.9354Z" fill="#FFA25F"/>
<path d="M42.3349 88.1025C43.782 88.1025 44.955 87.4604 44.955 86.6685C44.955 85.8765 43.782 85.2345 42.3349 85.2345C40.8879 85.2345 39.7148 85.8765 39.7148 86.6685C39.7148 87.4604 40.8879 88.1025 42.3349 88.1025Z" fill="#FFA25F"/>
<path d="M33.7253 114.642C37.0329 114.642 39.7142 113.583 39.7142 112.277C39.7142 110.971 37.0329 109.912 33.7253 109.912C30.4177 109.912 27.7363 110.971 27.7363 112.277C27.7363 113.583 30.4177 114.642 33.7253 114.642Z" fill="#FFA25F"/>
<path d="M17.905 91.9157C19.2947 91.9157 20.4213 91.0622 20.4213 90.0093C20.4213 88.9565 19.2947 88.103 17.905 88.103C16.5153 88.103 15.3887 88.9565 15.3887 90.0093C15.3887 91.0622 16.5153 91.9157 17.905 91.9157Z" fill="#FFA25F"/>
<path d="M54.7949 102.999C56.4636 102.999 57.8164 102.012 57.8164 100.795C57.8164 99.5777 56.4636 98.5909 54.7949 98.5909C53.1262 98.5909 51.7734 99.5777 51.7734 100.795C51.7734 102.012 53.1262 102.999 54.7949 102.999Z" fill="#FFA25F"/>
<path d="M29.1409 99.4425C26.7157 99.3504 24.2841 99.4637 21.8779 99.7803C23.1912 100.661 24.8126 101.073 26.3874 100.924C25.3569 102.446 24.2407 103.91 23.0461 105.305C24.4006 104.809 25.4935 103.802 26.5494 102.819C26.5685 104.273 26.5886 105.728 26.6077 107.182C26.793 107.219 26.9222 107.008 26.9921 106.834C27.8002 104.796 28.6093 102.752 29.1738 100.634L29.1409 99.4425Z" fill="#98C779"/>
<path d="M36.066 102.719C37.2638 102.471 38.218 101.342 38.2646 100.119C39.3893 100.158 40.5214 99.9245 41.5392 99.4448C41.4862 98.3518 41.124 97.2758 40.5034 96.3745C41.4523 96.0526 42.2742 95.3737 42.7698 94.5032C41.7859 93.1338 40.262 92.1404 38.594 91.8915C36.9259 91.6426 35.1383 92.1701 33.9394 93.3552C33.6513 93.639 33.3908 93.9715 33.2902 94.3623C33.1599 94.8664 33.3093 95.396 33.4787 95.8884C33.8028 96.8299 34.2042 97.7439 34.6797 98.6198L36.066 102.719Z" fill="#7AAE56"/>
<path d="M32.838 94.7513C32.6453 97.7188 33.878 100.747 36.0893 102.734C36.9408 101.598 37.5297 100.267 37.7997 98.8731C38.9138 99.2862 40.1424 99.3825 41.3073 99.1506C41.0775 97.903 40.477 96.7253 39.6022 95.8061C40.6147 95.6186 41.5424 95.0128 42.1207 94.1613C40.9716 92.935 39.2993 92.2158 37.6197 92.2264C35.939 92.237 34.2762 92.9763 33.1431 94.2175L32.838 94.7513Z" fill="#85BB61"/>
<path d="M32.8584 94.6313C33.586 96.9464 34.5105 99.199 35.6162 101.359C36.0059 99.827 35.8481 98.1611 35.1798 96.7272C36.9591 97.1868 38.7129 97.746 40.4285 98.4026C39.5061 97.2938 38.1907 96.6022 36.9103 95.9382C38.2734 95.4319 39.6374 94.9246 41.0004 94.4184C40.9739 94.232 40.7314 94.1801 40.5429 94.1738C38.3517 94.0975 36.1552 94.0213 33.9704 94.2013L32.8584 94.6313Z" fill="#98C779"/>
<path d="M32.6006 65.9207C33.4001 65.9207 34.0483 65.4631 34.0483 64.8987C34.0483 64.3343 33.4001 63.8767 32.6006 63.8767C31.801 63.8767 31.1528 64.3343 31.1528 64.8987C31.1528 65.4631 31.801 65.9207 32.6006 65.9207Z" fill="white"/>
<path d="M42.1168 64.7305C42.1168 65.1531 41.5788 65.4962 40.9158 65.4962C40.2528 65.4962 39.7148 65.1531 39.7148 64.7305C39.7148 64.308 40.2528 63.9648 40.9158 63.9648C41.5788 63.9648 42.1168 64.3069 42.1168 64.7305Z" fill="white"/>
<path d="M25.403 117.711C25.2388 118.171 24.5674 118.351 23.9034 118.113C23.2393 117.874 22.8348 117.31 22.9989 116.85C23.1631 116.39 23.8345 116.21 24.4985 116.449C25.1626 116.686 25.5671 117.252 25.403 117.711Z" fill="white"/>
<path d="M28.4534 82.7031C28.85 82.7031 29.1714 82.1777 29.1714 81.5296C29.1714 80.8816 28.85 80.3562 28.4534 80.3562C28.0568 80.3562 27.7354 80.8816 27.7354 81.5296C27.7354 82.1777 28.0568 82.7031 28.4534 82.7031Z" fill="#C1554D"/>
<path d="M21.8765 86.5338C21.8765 86.9468 21.5503 87.2815 21.149 87.2815C20.7476 87.2815 20.4214 86.9468 20.4214 86.5338C20.4214 86.1208 20.7476 85.7861 21.149 85.7861C21.5514 85.7861 21.8765 86.1208 21.8765 86.5338Z" fill="#C1554D"/>
<path d="M22.9624 94.4917C22.9624 94.9089 22.7199 95.2478 22.4202 95.2478C22.1205 95.2478 21.8779 94.91 21.8779 94.4917C21.8779 94.0733 22.1205 93.7355 22.4202 93.7355C22.7199 93.7365 22.9624 94.0744 22.9624 94.4917Z" fill="#C1554D"/>
<path d="M51.08 91.916C51.4637 91.916 51.7747 91.4892 51.7747 90.9628C51.7747 90.4364 51.4637 90.0096 51.08 90.0096C50.6963 90.0096 50.3853 90.4364 50.3853 90.9628C50.3853 91.4892 50.6963 91.916 51.08 91.916Z" fill="#C1554D"/>
<path d="M51.0795 104.928C51.0795 105.322 50.8815 105.641 50.6379 105.641C50.3943 105.641 50.1963 105.322 50.1963 104.928C50.1963 104.534 50.3943 104.214 50.6379 104.214C50.8815 104.213 51.0795 104.533 51.0795 104.928Z" fill="#C1554D"/>
<path d="M40.9158 104.928C40.9158 105.322 40.6468 105.641 40.3153 105.641C39.9838 105.641 39.7148 105.322 39.7148 104.928C39.7148 104.534 39.9838 104.214 40.3153 104.214C40.6468 104.213 40.9158 104.533 40.9158 104.928Z" fill="#C1554D"/>
<path d="M32.6619 104.927C33.2492 104.927 33.7252 104.598 33.7252 104.193C33.7252 103.788 33.2492 103.459 32.6619 103.459C32.0747 103.459 31.5986 103.788 31.5986 104.193C31.5986 104.598 32.0747 104.927 32.6619 104.927Z" fill="#C1554D"/>
<path d="M33.1358 75.1141C33.1358 75.5049 32.8858 75.8215 32.5776 75.8215C32.2695 75.8215 32.0195 75.5049 32.0195 75.1141C32.0195 74.7233 32.2695 74.4066 32.5776 74.4066C32.8858 74.4077 33.1358 74.7233 33.1358 75.1141Z" fill="#C1554D"/>
<path d="M50.1972 84.0301C50.1972 84.2928 49.9038 84.5046 49.5427 84.5046C49.1815 84.5046 48.8882 84.2917 48.8882 84.0301C48.8882 83.7685 49.1815 83.5557 49.5427 83.5557C49.9038 83.5557 50.1972 83.7675 50.1972 84.0301Z" fill="#C1554D"/>
<path d="M45.7565 95.5115C45.0554 95.9902 43.918 96.1204 43.8291 97.0005C43.7592 97.69 44.4603 98.1591 45.0713 98.408C45.6813 98.6569 46.4089 98.9916 46.4979 99.6789C46.5837 100.347 45.9864 100.922 45.9705 101.597C45.9514 102.381 46.7055 102.931 47.415 103.149C49.1529 103.682 51.0116 103.148 52.7145 102.499C54.4323 101.844 56.1416 101.047 57.4993 99.7541C57.9833 99.2934 58.4387 98.7257 58.5107 98.0395C58.5637 97.5332 58.3974 97.0227 58.1348 96.5959C57.1372 94.9756 55.0106 94.6409 53.2081 94.9269C51.4045 95.2128 49.6496 95.9552 47.827 95.8811L45.7565 95.5115Z" fill="#EFA285"/>
<path d="M31.2284 111.42C30.9023 111.103 30.3166 111.525 30.3293 111.988C30.342 112.45 30.7148 112.814 31.0961 113.057C31.4773 113.301 31.9084 113.496 32.1763 113.866C32.3479 114.104 32.4389 114.395 32.6094 114.633C33.0257 115.216 33.8051 115.354 34.5052 115.373C36.3755 115.424 38.2172 114.954 40.0324 114.487C41.4388 114.125 42.9141 113.724 43.9572 112.684C44.2887 112.354 44.5778 111.835 44.3438 111.425C43.9837 110.796 42.8219 111.14 42.519 110.479C42.4343 110.295 42.446 110.07 42.3337 109.901C42.1812 109.673 41.873 109.643 41.6051 109.637C38.6249 109.58 35.6373 109.99 32.7757 110.849L31.2284 111.42Z" fill="#EFA285"/>
<path d="M45.7565 95.472C45.0554 95.9232 43.918 96.046 43.8291 96.8753C43.7592 97.5255 44.4603 97.9672 45.0713 98.2012C45.6813 98.4353 46.4089 98.7509 46.4979 99.399C46.5837 100.029 45.9864 100.571 45.9705 101.206C45.9514 101.944 46.7055 102.464 47.415 102.668C49.1529 103.17 51.0116 102.667 52.7145 102.056C54.4323 101.439 56.1416 100.688 57.4993 99.4689C57.9833 99.0347 58.4387 98.4999 58.5107 97.8539C58.5637 97.3773 58.3974 96.8954 58.1348 96.494C57.1372 94.9679 55.0106 94.6523 53.2081 94.9213C51.4045 95.1903 49.6496 95.8904 47.827 95.8205L45.7565 95.472Z" fill="#E28D6D"/>
<path d="M48.13 92.1033L53.2452 98.8887L49.4316 101.093L45.1763 96.5979L48.13 92.1033Z" fill="#C1554D"/>
<path d="M48.1299 92.1035L53.2451 90.0098L56.0993 96.6851L53.2451 98.889L48.1299 92.1035Z" fill="#E28D6D"/>
<path d="M56.0995 96.6858L54.3499 98.8897L49.4316 101.094L53.2453 98.8897L56.0995 96.6858Z" fill="#943402"/>
<path d="M48.1299 92.1033L53.5035 98.0436L56.0993 96.6848L53.2451 98.8887L49.4315 101.093L52.3894 98.8887L48.1299 92.1033Z" fill="#EE9C7D"/>
<path d="M53.2448 98.1387C53.2448 98.5528 52.9917 98.8886 52.6793 98.8886C52.3669 98.8886 52.1138 98.5528 52.1138 98.1387C52.1138 97.7246 52.3669 97.3889 52.6793 97.3889C52.9917 97.3889 53.2448 97.7246 53.2448 98.1387Z" fill="#FFB78F"/>
<path d="M22.8654 87.1173C21.7788 87.524 20.6912 87.9318 19.6046 88.3384C18.9829 88.5714 18.2649 88.9199 18.1791 89.5797C18.0912 90.2606 18.769 90.8061 19.4299 90.9872C20.007 91.145 20.8087 91.3589 20.7494 91.9562C20.7293 92.1638 20.5906 92.3449 20.5662 92.5525C20.5069 93.0778 21.1476 93.3722 21.6655 93.4749C25.1191 94.1569 28.7813 93.7386 31.9934 92.2941C32.3249 92.1447 32.6776 91.9583 32.8163 91.6215C33.0641 91.0189 32.4774 90.4047 31.9066 90.0923C31.3358 89.7798 30.6442 89.4748 30.4875 88.8426C30.4027 88.4984 30.5033 88.1245 30.3921 87.7877C30.138 87.0146 29.0704 86.985 28.2677 87.1068C26.8718 87.3175 25.476 87.5293 24.0802 87.7401L22.8654 87.1173Z" fill="#EFA285"/>
<path d="M33.5171 75.9153C32.9875 76.3654 32.2526 76.3887 31.5832 76.5211C30.9139 76.6535 30.1704 77.0347 30.0614 77.7401C29.9375 78.5365 30.6883 79.1656 31.382 79.5108C32.0757 79.8571 32.8922 80.2109 33.122 80.9808C33.3339 81.6936 32.9452 82.5334 33.2894 83.1868C33.5287 83.6433 34.0455 83.8435 34.5263 83.9748C37.7522 84.8602 41.1582 84.3031 44.4486 83.7418C44.9655 83.6539 45.5225 83.5438 45.8762 83.1381C46.4577 82.473 46.159 81.3356 45.5162 80.7372C44.8733 80.1378 44.0017 79.9111 43.1915 79.6083C41.7067 79.0522 40.3437 78.187 38.8875 77.5505C37.4313 76.914 35.8046 76.5084 34.2796 76.9299L33.5171 75.9153Z" fill="#EFA285"/>
<path d="M22.8654 86.5822C21.7788 86.9878 20.6912 87.3945 19.6046 87.8001C18.9829 88.032 18.2649 88.3805 18.1791 89.0381C18.0912 89.717 18.769 90.2624 19.4299 90.4425C20.007 90.6003 20.8087 90.8131 20.7494 91.4083C20.7293 91.6159 20.5906 91.7959 20.5662 92.0035C20.5069 92.5278 21.1476 92.8222 21.6655 92.9238C25.1191 93.6038 28.7813 93.1865 31.9934 91.7462C32.3249 91.5979 32.6776 91.4115 32.8163 91.0758C33.0641 90.4742 32.4774 89.8621 31.9066 89.5497C31.3358 89.2372 30.6442 88.9333 30.4875 88.3021C30.4027 87.959 30.5033 87.5862 30.3921 87.2504C30.138 86.4794 29.0704 86.4498 28.2677 86.5705C26.8718 86.7813 25.476 86.992 24.0802 87.2017L22.8654 86.5822Z" fill="#E28D6D"/>
<path d="M20.3706 85.7544L28.7001 87.4372L27.3085 91.6163L21.1427 91.0773L20.3706 85.7544Z" fill="#C1554D"/>
<path d="M20.3701 85.7529L22.8091 80.7922L29.3731 83.8932L28.6996 87.4357L20.3701 85.7529Z" fill="#E28D6D"/>
<path d="M29.3733 83.8939L29.5258 86.7036L27.3081 91.6156L28.6997 87.4365L29.3733 83.8939Z" fill="#943402"/>
<path d="M20.3706 85.7536L28.3326 86.6337L29.3736 83.8939L28.7001 87.4365L27.3085 91.6156L28.0594 88.0052L20.3706 85.7536Z" fill="#EE9C7D"/>
<path d="M28.202 86.8762C28.4763 87.1865 28.5102 87.6049 28.2761 87.8124C28.0421 88.02 27.6301 87.9364 27.3558 87.6261C27.0815 87.3157 27.0476 86.8974 27.2817 86.6899C27.5157 86.4823 27.9277 86.567 28.202 86.8762Z" fill="#FFB78F"/>
<path d="M31.2284 110.87C30.9023 110.564 30.3166 110.97 30.3293 111.418C30.342 111.866 30.7148 112.217 31.0961 112.453C31.4773 112.688 31.9084 112.877 32.1763 113.236C32.3479 113.465 32.4389 113.746 32.6094 113.977C33.0257 114.541 33.8051 114.675 34.5052 114.693C36.3755 114.742 38.2172 114.287 40.0324 113.836C41.4388 113.487 42.9141 113.099 43.9572 112.093C44.2887 111.773 44.5778 111.271 44.3438 110.875C43.9837 110.267 42.8219 110.6 42.519 109.961C42.4343 109.783 42.446 109.564 42.3337 109.402C42.1812 109.182 41.873 109.152 41.6051 109.147C38.6249 109.092 35.6373 109.488 32.7757 110.318L31.2284 110.87Z" fill="#E28D6D"/>
<path d="M35.9708 113.829C36.71 113.985 37.3401 113.995 37.9014 113.906L38.8048 113.145L32.5786 107.363L31.1182 110.77C32.2418 112.327 34.1121 113.439 35.9708 113.829Z" fill="#C1554D"/>
<path d="M32.5786 107.363L37.2469 104.403L41.2279 110.474L38.8048 113.144L32.5786 107.363Z" fill="#E28D6D"/>
<path d="M38.9608 113.585L39.8928 112.951L41.2293 110.474L38.8062 113.144L37.9028 113.906C38.2841 113.846 38.6357 113.738 38.9608 113.585Z" fill="#943402"/>
<path d="M37.3391 113.958C37.535 113.952 37.7214 113.934 37.9014 113.906L38.8048 113.144L41.2279 110.473L38.9107 112.267L32.5786 107.362L37.9618 113.294L37.3391 113.958Z" fill="#EE9C7D"/>
<path d="M38.6736 112.406C38.7467 112.813 38.556 113.188 38.2489 113.243C37.9418 113.298 37.6336 113.012 37.5605 112.605C37.4875 112.197 37.6781 111.822 37.9852 111.767C38.2923 111.712 38.6005 111.998 38.6736 112.406Z" fill="#FFB78F"/>
<path d="M33.5171 75.9153C32.9875 76.3431 32.2526 76.3654 31.5832 76.4925C30.9139 76.6185 30.1704 76.9807 30.0614 77.6532C29.9375 78.4115 30.6883 79.0099 31.382 79.3392C32.0757 79.6686 32.8922 80.0054 33.122 80.7383C33.3339 81.4171 32.9452 82.2157 33.2894 82.8384C33.5287 83.2726 34.0455 83.4633 34.5263 83.5893C37.7522 84.4323 41.1582 83.9017 44.4486 83.3679C44.9655 83.2843 45.5225 83.1794 45.8762 82.7939C46.4577 82.1606 46.159 81.0782 45.5162 80.5085C44.8733 79.9387 44.0017 79.7226 43.1915 79.4335C41.7067 78.904 40.3437 78.0811 38.8875 77.4753C37.4313 76.8695 35.8046 76.483 34.2796 76.8843L33.5171 75.9153Z" fill="#E28D6D"/>
<path d="M48.6672 74.6129C48.1154 74.7135 47.5859 74.9402 47.1337 75.2706C46.9896 75.3754 46.8477 75.4941 46.6751 75.5417C46.5162 75.5851 46.3478 75.5639 46.1837 75.5428C45.6182 75.4686 45.0526 75.3934 44.486 75.3193C44.36 75.3024 44.2276 75.2875 44.1111 75.3352C43.9851 75.3871 43.8982 75.5036 43.822 75.6169C43.3327 76.3477 42.9949 77.1801 42.8371 78.0453C42.7756 78.3811 42.7418 78.7274 42.8064 79.0631C42.8572 79.3279 42.9684 79.5757 43.0817 79.8203C43.5297 80.7841 44.0349 81.7372 44.7582 82.5156C45.4826 83.293 46.4527 83.8861 47.5117 83.9697C47.8252 83.9941 48.1705 83.9623 48.3992 83.7463C48.574 83.5811 48.6471 83.3364 48.7064 83.1034C49.076 81.6472 49.1723 80.1211 48.9902 78.6299C48.879 77.7255 48.6672 76.8115 48.8197 75.9134L48.6672 74.6129Z" fill="#7AAE56"/>
<path d="M48.4193 84.114C51.2036 83.0708 53.4572 80.7007 54.3606 77.8677C52.9754 77.5584 51.5192 77.5679 50.1371 77.8952C50.0556 76.7101 49.6394 75.5494 48.9478 74.5835C47.9046 75.3058 47.0775 76.3373 46.5988 77.5129C46.0121 76.6667 45.078 76.0693 44.0634 75.8925C43.4174 77.444 43.4502 79.2635 44.1503 80.7917C44.8503 82.3189 46.208 83.5315 47.8051 84.0547L48.4193 84.114Z" fill="#85BB61"/>
<path d="M48.3166 83.9115C47.2788 83.0728 46.2303 82.2245 45.4085 81.1728C44.5867 80.1212 43.9978 78.8334 44.0243 77.4989C44.2478 78.4468 45.0346 79.1405 45.7792 79.7685C46.2939 80.2017 46.8075 80.6348 47.3222 81.069C47.1009 80.7015 47.2354 80.2313 47.3762 79.8257C47.714 78.8482 48.0529 77.8696 48.3908 76.8921C48.5698 78.2943 48.645 79.7103 48.6153 81.1241C49.4689 80.3266 50.4401 79.6552 51.4885 79.1373C51.1623 80.3457 50.3659 81.3645 49.5896 82.3473C49.2581 82.7667 48.9256 83.1861 48.5941 83.6066L48.3166 83.9115Z" fill="#98C779"/>
<path d="M36.7354 81.2265C37.4746 81.3811 38.1048 81.3927 38.6661 81.3038L39.5694 80.5423L33.3433 74.7609L31.8828 78.1679C33.0065 79.7247 34.8757 80.8367 36.7354 81.2265Z" fill="#C1554D"/>
<path d="M33.3423 74.7604L38.0106 71.8003L41.9916 77.8709L39.5685 80.5418L33.3423 74.7604Z" fill="#E28D6D"/>
<path d="M39.724 80.9824L40.656 80.348L41.9925 77.8708L39.5694 80.5418L38.666 81.3033C39.0483 81.2429 39.3989 81.1338 39.724 80.9824Z" fill="#943402"/>
<path d="M38.1027 81.3553C38.2987 81.35 38.4851 81.332 38.6651 81.3034L39.5685 80.5419L41.9916 77.8709L39.6744 79.665L33.3423 74.7594L38.7255 80.6912L38.1027 81.3553Z" fill="#EE9C7D"/>
<path d="M39.4368 79.8041C39.5099 80.2118 39.3192 80.5867 39.0121 80.6418C38.705 80.6969 38.3968 80.4109 38.3237 80.0032C38.2506 79.5955 38.4413 79.2206 38.7484 79.1655C39.0555 79.1104 39.3648 79.3964 39.4368 79.8041Z" fill="#FFB78F"/>
<path d="M34.8081 87.4678C34.8081 87.8184 34.5709 88.1033 34.2786 88.1033C33.9863 88.1033 33.749 87.8194 33.749 87.4678C33.749 87.1173 33.9863 86.8324 34.2786 86.8324C34.5709 86.8324 34.8081 87.1173 34.8081 87.4678Z" fill="#C1554D"/>
<path d="M45.7864 89.2006C45.7864 89.5141 45.4856 89.7672 45.1139 89.7672C44.7422 89.7672 44.4414 89.5131 44.4414 89.2006C44.4414 88.8882 44.7422 88.634 45.1139 88.634C45.4856 88.634 45.7864 88.8872 45.7864 89.2006Z" fill="#C1554D"/>
<path d="M19.8226 85.5308C18.3717 87.1755 17.6907 89.4038 17.643 91.596C17.5954 93.7883 18.1397 95.9573 18.9001 98.015C17.9152 94.0573 18.3071 89.7713 19.9941 86.0582L19.8226 85.5308Z" fill="#FFE199"/>
<path d="M44.2432 112.22C45.3594 112.05 46.3814 111.51 47.378 110.979C48.6488 110.3 49.9271 109.618 51.0677 108.738C52.2083 107.858 53.2165 106.763 53.7958 105.443C52.3396 107.111 50.4228 108.298 48.5376 109.46C47.5474 110.07 46.5561 110.68 45.5659 111.291C45.137 111.556 44.6721 111.956 44.2432 112.22Z" fill="#FFE199"/>
<path d="M55.6436 90.3042C55.5112 87.3292 54.6491 84.3893 53.1548 81.8136C53.5922 81.7363 53.9109 82.2034 54.1048 82.6026C54.4023 83.2127 54.6989 83.8237 54.9965 84.4338C55.2168 84.8849 55.437 85.3382 55.6065 85.8106C56.0968 87.1789 56.1381 88.7039 55.724 90.0976L55.6436 90.3042Z" fill="#FFE199"/>
</g>
<path d="M205.493 171.493C240.836 136.151 240.836 78.8493 205.493 43.5068C170.151 8.16439 112.849 8.16439 77.5068 43.5068C42.1644 78.8493 42.1644 136.151 77.5068 171.493C112.849 206.836 170.151 206.836 205.493 171.493Z" fill="#3DA0A7"/>
<path d="M141.505 195.183C189.931 195.183 229.188 155.926 229.188 107.5C229.188 59.0739 189.931 19.8169 141.505 19.8169C93.0788 19.8169 53.8218 59.0739 53.8218 107.5C53.8218 155.926 93.0788 195.183 141.505 195.183Z" fill="#FFF6FA"/>
<path d="M202.359 168.358C235.97 134.747 235.97 80.2517 202.359 46.6402C168.747 13.0288 114.252 13.0288 80.6407 46.6402C47.0293 80.2517 47.0293 134.747 80.6407 168.358C114.252 201.97 168.747 201.97 202.359 168.358Z" fill="#BCE5E8"/>
<path d="M105.623 185.729C116.547 190.748 128.692 193.569 141.505 193.569C189.038 193.569 227.573 155.034 227.573 107.5C227.573 80.0091 214.666 55.5466 194.601 39.7891C196.573 49.992 197.266 60.5122 197.914 70.9131C198.622 82.2736 199.32 93.7712 197.241 104.962C194.672 118.782 187.967 131.508 180.189 143.217C171.697 155.996 161.613 168.04 148.727 176.369C136.057 184.562 120.365 188.847 105.623 185.729Z" fill="#8FD2D7"/>
<path d="M190.345 156.344C217.321 129.368 217.321 85.6308 190.345 58.6547C163.369 31.6787 119.632 31.6787 92.6558 58.6547C65.6798 85.6308 65.6798 129.368 92.6558 156.344C119.632 183.32 163.369 183.32 190.345 156.344Z" fill="#FFF6FA"/>
<path d="M141.504 173.612C178.017 173.612 207.616 144.012 207.616 107.5C207.616 70.9871 178.017 41.3878 141.504 41.3878C104.991 41.3878 75.3921 70.9871 75.3921 107.5C75.3921 144.012 104.991 173.612 141.504 173.612Z" fill="#ADDFE2"/>
<path d="M183.11 149.109C206.091 126.128 206.091 88.8694 183.11 65.8887C160.129 42.9081 122.87 42.908 99.8895 65.8887C76.9088 88.8694 76.9088 126.128 99.8895 149.109C122.87 172.09 160.129 172.09 183.11 149.109Z" fill="#FFF6FA"/>
<path d="M141.505 163.878C173.086 163.878 198.688 138.637 198.688 107.5C198.688 76.3624 173.086 51.1208 141.505 51.1208C109.923 51.1208 84.3213 76.3624 84.3213 107.5C84.3213 138.637 109.923 163.878 141.505 163.878Z" fill="#BCE5E8"/>
<path d="M203.415 88.0801L151.928 45.3251C147.087 41.3053 139.926 41.8671 136.018 46.5725L125.871 58.7902C122.59 62.7435 122.613 68.4052 125.569 72.503L82.8757 123.912C80.2019 127.134 80.7224 132.018 84.036 134.77L127.089 170.522C130.403 173.274 135.301 172.888 137.974 169.667L180.518 118.436C185.251 121.275 191.431 120.42 194.965 116.166L205.112 103.948C209.019 99.2429 208.258 92.1022 203.415 88.0801Z" fill="#AF4040"/>
<path d="M200.065 88.4559L152.176 48.6866C147.672 44.9465 140.928 45.5725 137.188 50.0762L127.481 61.7665C124.34 65.5478 124.289 70.9045 127.016 74.7409L86.1709 123.923C83.6118 127.005 84.0406 131.619 87.1202 134.178L127.167 167.433C130.249 169.992 134.863 169.563 137.422 166.483L178.122 117.471C182.539 120.094 188.365 119.204 191.746 115.134L201.452 103.444C205.195 98.94 204.569 92.196 200.065 88.4559Z" fill="#F4C960"/>
<path d="M197.015 89.5774L151.632 51.8901C147.365 48.3473 140.974 48.9389 137.429 53.2064L128.229 64.2844C125.252 67.8685 125.204 72.9432 127.788 76.5777L89.0876 123.185C86.6638 126.104 87.0673 130.477 89.9887 132.903L127.937 164.418C130.857 166.841 135.229 166.438 137.656 163.516L176.226 117.072C180.411 119.557 185.932 118.714 189.136 114.859L198.336 103.781C201.876 99.5134 201.282 93.1202 197.015 89.5774Z" fill="#F8D581"/>
<path d="M140.479 46.7306C139.837 47.5033 138.883 47.767 138.346 47.3222C137.809 46.8773 137.894 45.8913 138.536 45.1185C139.178 44.3457 140.132 44.082 140.669 44.5269C141.203 44.9717 141.118 45.9601 140.479 46.7306Z" fill="#451B06"/>
<path d="M121.714 82.7095C119.861 85.8327 116.261 87.4998 113.172 89.5246C110.084 91.5472 107.105 94.7231 107.703 98.2591C107.962 99.7932 108.873 101.142 109.377 102.614C110.414 105.636 109.579 109.195 107.291 111.516C105.11 113.726 101.95 114.705 99.1982 116.21C96.4464 117.714 93.814 120.321 94.1625 123.339C94.5225 126.462 97.8704 128.494 98.8244 131.493C100.15 135.657 96.5244 139.886 96.6299 144.25C96.6964 146.981 98.3658 149.616 100.854 150.911C103.342 152.207 106.552 152.115 108.978 150.68C110.714 149.652 112.166 147.962 114.184 147.735C117.279 147.389 119.455 150.698 119.91 153.665C120.364 156.632 119.971 159.861 121.544 162.441C122.952 164.75 125.842 166.066 128.623 165.871C131.407 165.674 134.003 164.067 135.551 161.819C136.629 160.256 137.222 158.43 138.236 156.827C139.247 155.224 140.887 153.775 142.829 153.764C143.813 153.759 144.751 154.124 145.712 154.319C150.144 155.22 155.017 151.808 155.512 147.458C156.035 142.867 152.412 138.006 154.636 133.903C156.145 131.124 159.658 130.115 162.729 129.076C165.799 128.037 169.202 126.162 169.507 123.043C169.647 121.614 169.074 120.174 169.321 118.757C169.732 116.42 172.222 114.941 174.614 114.393C177.006 113.843 179.542 113.893 181.842 113.05C185.635 111.655 188.237 107.686 187.907 103.799C187.478 98.7315 182.709 93.9847 184.596 89.2196C185.137 87.853 186.185 86.7156 186.76 85.3604C188.042 82.3495 186.77 78.8984 184.965 76.1719C183.89 74.5461 182.316 72.8904 180.31 72.9546C179.558 72.9776 178.806 73.2505 178.07 73.1083C176.026 72.7139 176.01 69.9874 175.566 68.0268C174.972 65.4057 172.683 63.2869 169.998 62.576C167.313 61.8675 164.332 62.4912 162.016 64.0023C158.911 66.0295 156.06 69.7672 152.456 68.8431C151.465 68.5886 150.619 67.9924 149.738 67.4856C145.822 65.2292 139.944 65.1191 137.358 68.7766C136.195 70.4185 135.927 72.4708 135.37 74.3809C134.812 76.2911 133.742 78.3022 131.799 78.9626C130.07 79.5519 128.199 78.903 126.383 78.708C124.567 78.5131 122.274 79.146 121.934 80.8796L121.714 82.7095Z" fill="#7AAE56"/>
<path d="M114.087 147.494C111.998 146.559 109.802 148.281 107.724 149.244C105.646 150.207 103.016 150.982 101.221 149.565C99.024 147.829 99.8494 144.419 100.443 141.686C101.228 138.079 101.223 134.304 100.427 130.702C99.666 127.253 98.2626 123.38 100.212 120.431C101.4 118.631 103.532 117.743 105.291 116.491C108.99 113.854 111.154 109.213 110.79 104.696C110.616 102.536 109.909 100.38 110.276 98.2452C110.863 94.8261 113.98 92.4711 116.988 90.7307C119.997 88.9902 123.331 87.3231 124.986 84.2733C125.812 82.7529 126.28 80.8405 127.812 80.0356C129.816 78.9831 132.377 80.5034 134.498 79.7077C138.144 78.3387 136.835 72.2711 139.83 69.7854C141.976 68.006 145.209 68.9301 147.727 70.1271C150.245 71.3241 153.1 72.7412 155.684 71.6864C158.28 70.627 159.351 67.5519 161.454 65.6991C163.256 64.1123 165.877 63.5046 168.196 64.1398C170.514 64.775 172.456 66.6324 173.188 68.914C173.876 71.0535 173.74 73.7777 175.621 75.0137C177.418 76.1969 179.941 75.1765 181.92 76.0227C184.392 77.0775 184.832 80.4736 184.071 83.0465C183.307 85.6193 181.734 87.9721 181.498 90.6458C181.193 94.1015 183.158 97.2935 184.201 100.602C185.242 103.911 184.85 108.376 181.642 109.718C180.069 110.376 178.283 110.059 176.579 110.11C172.924 110.22 169.218 112.403 168.017 115.847C167.338 117.792 167.466 119.975 166.581 121.834C164.079 127.086 155.638 126.485 152.336 131.275C149.365 135.591 152.206 141.36 152.357 146.591C152.424 148.888 151.49 151.665 149.225 152.09C147.083 152.491 145.214 150.53 143.054 150.237C139.736 149.787 137.314 153.195 135.798 156.174C134.283 159.152 132.088 162.631 128.743 162.471C126.115 162.344 124.191 159.886 123.313 157.414C122.434 154.942 122.203 152.239 121.001 149.907C119.8 147.575 117.091 145.648 114.622 146.556L114.087 147.494Z" fill="#85BB61"/>
<path d="M115.147 147.031C113.124 146.125 110.815 147.196 108.804 148.13C106.791 149.061 104.243 149.815 102.505 148.439C100.377 146.756 101.175 143.454 101.75 140.808C102.51 137.315 102.505 133.658 101.734 130.168C100.998 126.827 99.6385 123.077 101.526 120.22C102.677 118.477 104.743 117.617 106.444 116.404C110.029 113.85 112.125 109.355 111.771 104.978C111.602 102.887 110.918 100.797 111.274 98.7291C111.842 95.4179 114.86 93.1362 117.777 91.4508C120.692 89.7654 123.92 88.151 125.525 85.1952C126.326 83.723 126.777 81.8702 128.263 81.0905C130.203 80.0701 132.687 81.5423 134.739 80.7718C138.271 79.4464 137.002 73.5668 139.903 71.1614C141.983 69.4369 145.113 70.3335 147.553 71.4916C149.993 72.6496 152.758 74.0232 155.26 73.0027C157.776 71.9754 158.812 68.9967 160.848 67.2035C162.593 65.6648 165.134 65.0777 167.379 65.6946C169.624 66.3091 171.505 68.1092 172.215 70.3198C172.88 72.3928 172.752 75.0298 174.573 76.2291C176.313 77.3734 178.755 76.3873 180.672 77.206C183.066 78.2287 183.495 81.517 182.754 84.0096C182.016 86.5023 180.491 88.7816 180.264 91.3705C179.968 94.7185 181.874 97.8096 182.883 101.015C183.892 104.221 183.511 108.544 180.404 109.846C178.881 110.484 177.15 110.176 175.499 110.227C171.959 110.335 168.37 112.449 167.205 115.783C166.547 117.666 166.671 119.782 165.813 121.582C163.392 126.668 155.214 126.086 152.015 130.727C149.138 134.907 151.889 140.496 152.034 145.564C152.098 147.79 151.194 150.48 149 150.89C146.925 151.28 145.115 149.379 143.022 149.097C139.807 148.662 137.463 151.964 135.993 154.848C134.524 157.733 132.398 161.102 129.158 160.948C126.612 160.826 124.748 158.444 123.897 156.05C123.047 153.656 122.822 151.037 121.657 148.778C120.492 146.52 117.869 144.653 115.479 145.534L115.147 147.031Z" fill="#98C779"/>
<path d="M142.9 68.3961C144.116 70.038 144.691 72.0513 145.223 74.0234C146.918 80.2996 148.381 86.6355 149.615 93.0172C150.33 91.7629 150.286 90.2334 150.22 88.7933C150.048 84.973 149.876 81.1527 149.702 77.3324C149.557 74.1404 149.351 70.758 147.521 68.1393L142.9 68.3961Z" fill="#435E18"/>
<path d="M97.5566 122.956C100.434 122.408 103.388 121.858 106.277 122.346C107.786 122.601 109.268 123.137 110.795 123.073C112.54 123.002 114.434 122.183 115.924 123.087C111.26 121.285 106.594 119.482 101.93 117.68C101.352 117.457 100.753 117.23 100.134 117.251C99.515 117.274 98.8614 117.611 98.6665 118.198L97.5566 122.956Z" fill="#435E18"/>
<path d="M135.4 157.343C133.52 150.677 131.953 143.922 130.704 137.109C132.63 141.762 134.565 146.43 137.106 150.78C137.471 151.404 137.847 152.021 138.181 152.663C138.39 153.06 138.585 153.489 138.564 153.936C138.544 154.383 138.239 154.851 137.792 154.901L135.4 157.343Z" fill="#435E18"/>
<path d="M110.655 148.627C112.524 143.339 114.608 138.125 116.904 133.007C116.67 136.568 116.78 140.152 117.229 143.69C117.41 145.119 117.642 146.612 117.156 147.969C115.133 147.488 112.911 147.919 111.217 149.12L110.655 148.627Z" fill="#435E18"/>
<path d="M174.802 71.4209C172.064 76.1745 168.645 80.4947 165.237 84.7966C164.488 85.7437 163.738 86.6884 162.99 87.6355C166.838 85.1589 170.447 82.3109 173.752 79.1464C174.616 78.3163 175.481 77.4403 175.972 76.3488C176.462 75.2573 176.517 73.8952 175.813 72.9275L174.802 71.4209Z" fill="#435E18"/>
<path d="M184.243 94.5627C182.83 94.3678 181.395 94.4504 179.971 94.5352C175.169 94.8173 170.367 95.097 165.565 95.3791C166.59 94.3564 168.115 94.072 169.533 93.7739C173.493 92.9415 177.35 91.6253 180.993 89.8642C181.23 89.7495 181.503 89.6326 181.743 89.7357C181.92 89.8114 182.028 89.988 182.122 90.1577C182.933 91.623 183.495 93.2281 183.773 94.8792L184.243 94.5627Z" fill="#435E18"/>
<path d="M129.153 153.624C144.89 153.624 157.647 140.867 157.647 125.13C157.647 109.393 144.89 96.6356 129.153 96.6356C113.416 96.6356 100.659 109.393 100.659 125.13C100.659 140.867 113.416 153.624 129.153 153.624Z" fill="#D34040"/>
<path d="M129.153 152.489C144.263 152.489 156.512 140.24 156.512 125.13C156.512 110.02 144.263 97.7709 129.153 97.7709C114.043 97.7709 101.794 110.02 101.794 125.13C101.794 140.24 114.043 152.489 129.153 152.489Z" fill="#F35C53"/>
<path d="M147.947 143.935C158.33 133.551 158.33 116.717 147.947 106.333C137.563 95.9498 120.729 95.9499 110.345 106.333C99.9618 116.717 99.9618 133.551 110.345 143.935C120.729 154.318 137.563 154.318 147.947 143.935Z" fill="#F35C53"/>
<path d="M129.153 151.363C143.641 151.363 155.386 139.618 155.386 125.13C155.386 110.641 143.641 98.8965 129.153 98.8965C114.665 98.8965 102.92 110.641 102.92 125.13C102.92 139.618 114.665 151.363 129.153 151.363Z" fill="#C02E24"/>
<path d="M147.228 143.217C157.215 133.23 157.215 117.038 147.228 107.052C137.242 97.0649 121.05 97.0649 111.063 107.052C101.077 117.038 101.077 133.23 111.063 143.217C121.05 153.203 137.242 153.203 147.228 143.217Z" fill="#FF9D97"/>
<path d="M147.932 141.375C156.537 131.013 155.011 115.553 144.524 106.845C134.037 98.1367 118.56 99.4778 109.955 109.84C101.35 120.203 102.877 135.662 113.364 144.371C123.851 153.079 139.328 151.738 147.932 141.375Z" fill="#DF6565"/>
<path d="M129.153 146.942C141.199 146.942 150.965 137.176 150.965 125.13C150.965 113.083 141.199 103.318 129.153 103.318C117.106 103.318 107.341 113.083 107.341 125.13C107.341 137.176 117.106 146.942 129.153 146.942Z" fill="#F26C6C"/>
<path d="M136.149 144.86C147.043 140.98 152.729 129.003 148.849 118.108C144.969 107.214 132.992 101.528 122.098 105.408C111.203 109.288 105.517 121.265 109.397 132.159C113.277 143.054 125.254 148.74 136.149 144.86Z" fill="#FF8585"/>
<path d="M129.153 144.316C139.75 144.316 148.34 135.726 148.34 125.13C148.34 114.534 139.75 105.944 129.153 105.944C118.557 105.944 109.967 114.534 109.967 125.13C109.967 135.726 118.557 144.316 129.153 144.316Z" fill="#F26C6C"/>
<path d="M129.153 143.651C139.382 143.651 147.675 135.359 147.675 125.13C147.675 114.901 139.382 106.608 129.153 106.608C118.924 106.608 110.632 114.901 110.632 125.13C110.632 135.359 118.924 143.651 129.153 143.651Z" fill="#FF8585"/>
<path d="M137.461 127.162C138.577 122.562 135.752 117.928 131.151 116.812C126.551 115.696 121.917 118.521 120.801 123.122C119.685 127.722 122.51 132.356 127.111 133.472C131.711 134.588 136.345 131.763 137.461 127.162Z" fill="#DF6565"/>
<path d="M129.857 132.89C134.168 132.49 137.338 128.672 136.938 124.362C136.539 120.052 132.721 116.882 128.411 117.281C124.1 117.681 120.93 121.499 121.33 125.809C121.729 130.119 125.547 133.289 129.857 132.89Z" fill="#FF928A"/>
<path d="M129.811 132.397C133.849 132.023 136.819 128.447 136.445 124.409C136.07 120.371 132.494 117.401 128.456 117.776C124.418 118.15 121.448 121.726 121.823 125.764C122.197 129.802 125.774 132.772 129.811 132.397Z" fill="#FF685F"/>
<path d="M138.541 106.209C136.328 109.963 134.113 113.719 131.9 117.473C131.99 117.806 132.439 117.923 132.756 117.785C133.072 117.647 133.279 117.345 133.469 117.056C134.765 115.098 136.06 113.139 137.243 111.112C138.002 109.812 138.734 108.431 138.832 106.93C138.849 106.673 138.796 106.345 138.546 106.283L138.541 106.209Z" fill="#DF6565"/>
<path d="M130.1 122.027C131.916 118.762 133.732 115.494 135.546 112.229C136.876 109.835 138.222 107.406 138.926 104.778C141.625 105.292 144.143 106.576 146.117 108.445C140.706 113.16 135.622 118.266 130.928 123.708L130.1 122.027Z" fill="#FF685F"/>
<path d="M148.436 134.07C147.734 134.08 147.101 133.683 146.498 133.328C143.37 131.477 139.832 130.324 136.213 129.975C136.106 129.966 135.979 129.941 135.938 129.842C135.908 129.771 135.94 129.691 135.97 129.62C136.179 129.129 136.385 128.638 136.594 128.147C136.654 128.005 136.722 127.854 136.86 127.78C137.112 127.645 137.403 127.856 137.621 128.044C138.947 129.188 140.595 129.872 142.164 130.651C144.122 131.624 145.993 132.773 147.75 134.08L148.436 134.07Z" fill="#DF6565"/>
<path d="M132.925 125.155C136.456 125.701 139.988 126.247 143.519 126.793C146.108 127.194 148.731 127.595 151.336 127.329C151.71 130.021 151.327 132.814 150.245 135.309C144.278 131.922 138.062 128.978 131.659 126.513L132.925 125.155Z" fill="#DF6565"/>
<path d="M113.228 140.241C116.188 136.73 119.937 133.99 123.65 131.284C123.42 130.899 123.115 130.557 122.758 130.285C120.806 131.793 118.951 133.424 117.204 135.164C115.656 136.705 114.175 138.365 113.232 140.335L113.228 140.241Z" fill="#DF6565"/>
<path d="M126.395 127.712C123.737 130.101 121.079 132.488 118.424 134.878C116.475 136.63 114.505 138.405 113.06 140.59C110.74 139.175 108.818 137.111 107.573 134.694C113.971 132.218 120.185 129.267 126.145 125.868L126.395 127.712Z" fill="#DF6565"/>
<path d="M129.719 147.171C128.889 142.489 128.513 137.724 128.598 132.968C129.013 132.842 129.447 132.784 129.88 132.798C130.79 137.492 130.836 142.353 130.015 147.066L129.719 147.171Z" fill="#DF6565"/>
<path d="M130.332 128.934C131.556 132.291 132.778 135.648 134.003 139.005C134.9 141.466 135.812 143.958 137.3 146.114C135.122 147.74 132.489 148.751 129.784 149.003C129.875 142.144 129.456 135.277 128.529 128.48L130.332 128.934Z" fill="#DF6565"/>
<path d="M111.363 112.098C112.672 112.373 113.539 113.568 114.461 114.538C116.747 116.95 119.992 118.372 121.982 121.034C122.182 120.791 122.381 120.548 122.581 120.305C122.643 120.229 122.707 120.149 122.714 120.053C122.723 119.931 122.64 119.823 122.563 119.729C119.925 116.574 117.059 113.416 113.294 111.763C112.604 111.46 111.741 111.231 111.143 111.687C111.138 111.779 111.131 111.873 111.125 111.965L111.363 112.098Z" fill="#F35C53"/>
<path d="M125.599 122.679C122.79 120.47 119.983 118.26 117.174 116.051C115.115 114.433 113.028 112.795 110.627 111.747C111.624 109.218 113.328 106.973 115.495 105.331C119.031 111.211 123.003 116.827 127.371 122.117L125.599 122.679Z" fill="#DF6565"/>
<path d="M127.938 116.145C126.571 115.038 125.869 113.166 126.172 111.433C126.314 110.617 126.727 109.773 127.491 109.445C128.474 109.023 129.676 109.681 130.13 110.651C130.582 111.621 130.433 112.774 130.059 113.776C129.685 114.783 129.098 115.71 128.346 116.478C128.25 116.427 128.02 116.212 127.938 116.145Z" fill="#DF6565"/>
<path d="M128.19 115.244C127.066 114.334 126.491 112.795 126.738 111.371C126.855 110.699 127.195 110.004 127.821 109.736C128.628 109.387 129.619 109.931 129.99 110.729C130.362 111.527 130.238 112.474 129.933 113.3C129.626 114.127 129.142 114.889 128.525 115.522C128.447 115.476 128.259 115.299 128.19 115.244Z" fill="#ED6339"/>
<path d="M129.362 111.818C129.082 112.155 128.582 112.201 128.243 111.922C127.904 111.642 127.86 111.142 128.14 110.803C128.42 110.465 128.92 110.42 129.259 110.699C129.596 110.979 129.642 111.481 129.362 111.818Z" fill="#FFE199"/>
<path d="M128.983 113.93C128.791 114.162 128.451 114.201 128.227 114.013C128.002 113.827 127.977 113.485 128.169 113.254C128.362 113.022 128.701 112.983 128.926 113.171C129.151 113.357 129.176 113.699 128.983 113.93Z" fill="#FFE199"/>
<path d="M129.256 111.213C129.117 111.382 128.841 111.382 128.64 111.217C128.44 111.05 128.39 110.779 128.529 110.61C128.669 110.44 128.947 110.44 129.146 110.605C129.348 110.772 129.396 111.045 129.256 111.213Z" fill="#FFEAB8"/>
<path d="M137.569 122.557C137.984 120.848 139.376 119.413 141.07 118.943C141.871 118.72 142.809 118.734 143.432 119.282C144.235 119.989 144.155 121.36 143.471 122.183C142.788 123.006 141.683 123.364 140.616 123.458C139.545 123.552 138.456 123.417 137.44 123.068C137.45 122.96 137.544 122.66 137.569 122.557Z" fill="#DF6565"/>
<path d="M138.491 122.401C138.833 120.995 139.977 119.816 141.369 119.429C142.027 119.248 142.797 119.257 143.311 119.706C143.971 120.289 143.905 121.415 143.343 122.091C142.781 122.77 141.873 123.063 140.997 123.139C140.117 123.217 139.222 123.105 138.388 122.818C138.392 122.733 138.47 122.486 138.491 122.401Z" fill="#ED6339"/>
<path d="M142.091 121.993C141.667 121.885 141.41 121.452 141.518 121.028C141.626 120.603 142.059 120.346 142.483 120.454C142.907 120.562 143.164 120.995 143.056 121.42C142.949 121.844 142.515 122.101 142.091 121.993Z" fill="#FFE199"/>
<path d="M140.018 122.555C139.724 122.479 139.546 122.19 139.619 121.906C139.692 121.621 139.988 121.454 140.282 121.53C140.575 121.605 140.754 121.894 140.681 122.178C140.607 122.461 140.312 122.63 140.018 122.555Z" fill="#FFE199"/>
<path d="M142.591 121.637C142.378 121.582 142.258 121.334 142.323 121.082C142.387 120.83 142.611 120.669 142.825 120.722C143.038 120.777 143.157 121.025 143.093 121.277C143.026 121.532 142.804 121.692 142.591 121.637Z" fill="#FFEAB8"/>
<path d="M120.098 124.877C118.907 126.173 116.995 126.756 115.284 126.345C114.477 126.152 113.661 125.687 113.381 124.905C113.021 123.898 113.755 122.738 114.75 122.346C115.745 121.954 116.887 122.176 117.864 122.612C118.846 123.048 119.735 123.692 120.453 124.49C120.398 124.582 120.169 124.797 120.098 124.877Z" fill="#DF6565"/>
<path d="M119.214 124.568C118.235 125.632 116.664 126.111 115.257 125.777C114.594 125.618 113.922 125.235 113.693 124.593C113.397 123.766 114 122.812 114.818 122.491C115.637 122.17 116.575 122.351 117.38 122.708C118.187 123.066 118.916 123.596 119.508 124.252C119.462 124.325 119.274 124.504 119.214 124.568Z" fill="#ED6339"/>
<path d="M115.867 123.183C116.186 123.484 116.202 123.986 115.901 124.305C115.601 124.623 115.099 124.64 114.78 124.339C114.461 124.039 114.445 123.537 114.746 123.218C115.046 122.899 115.548 122.883 115.867 123.183Z" fill="#FFE199"/>
<path d="M117.954 123.695C118.174 123.901 118.19 124.243 117.99 124.456C117.791 124.669 117.449 124.674 117.229 124.465C117.009 124.259 116.993 123.917 117.192 123.704C117.392 123.491 117.734 123.486 117.954 123.695Z" fill="#FFE199"/>
<path d="M115.259 123.252C115.419 123.404 115.403 123.679 115.224 123.869C115.046 124.059 114.77 124.092 114.612 123.94C114.452 123.789 114.468 123.514 114.647 123.323C114.823 123.133 115.098 123.101 115.259 123.252Z" fill="#FFEAB8"/>
<path d="M125.86 133.607C126.443 135.267 126.058 137.228 124.893 138.546C124.342 139.168 123.549 139.67 122.728 139.548C121.669 139.393 120.992 138.2 121.114 137.136C121.238 136.072 121.969 135.171 122.813 134.513C123.659 133.852 124.645 133.371 125.688 133.112C125.741 133.203 125.826 133.506 125.86 133.607Z" fill="#DF6565"/>
<path d="M125.172 134.24C125.651 135.605 125.335 137.217 124.376 138.301C123.925 138.813 123.271 139.225 122.597 139.124C121.726 138.996 121.168 138.017 121.272 137.141C121.375 136.265 121.975 135.524 122.668 134.983C123.363 134.44 124.175 134.045 125.032 133.83C125.076 133.908 125.142 134.158 125.172 134.24Z" fill="#FFE199"/>
<path d="M122.377 136.543C122.792 136.403 123.244 136.625 123.384 137.04C123.524 137.455 123.301 137.907 122.886 138.047C122.471 138.187 122.019 137.964 121.88 137.549C121.737 137.134 121.962 136.683 122.377 136.543Z" fill="#F4D885"/>
<path d="M123.808 134.942C124.094 134.845 124.401 134.992 124.496 135.267C124.59 135.545 124.434 135.847 124.147 135.944C123.86 136.04 123.553 135.893 123.459 135.618C123.365 135.341 123.521 135.038 123.808 134.942Z" fill="#F4D885"/>
<path d="M122.15 137.111C122.359 137.04 122.595 137.185 122.677 137.432C122.76 137.68 122.659 137.937 122.453 138.005C122.244 138.077 122.008 137.932 121.925 137.684C121.843 137.439 121.944 137.182 122.15 137.111Z" fill="#FFEAB8"/>
<path d="M135.512 131.443C137.271 131.459 138.986 132.486 139.83 134.029C140.226 134.756 140.43 135.676 140.038 136.405C139.532 137.347 138.181 137.581 137.222 137.104C136.264 136.627 135.663 135.632 135.331 134.616C134.996 133.596 134.879 132.504 134.987 131.436C135.09 131.415 135.404 131.44 135.512 131.443Z" fill="#DF6565"/>
<path d="M135.874 132.302C137.321 132.316 138.729 133.16 139.424 134.428C139.752 135.026 139.917 135.781 139.596 136.382C139.181 137.157 138.069 137.349 137.28 136.957C136.493 136.565 135.998 135.746 135.725 134.912C135.45 134.072 135.354 133.176 135.443 132.297C135.528 132.281 135.785 132.302 135.874 132.302Z" fill="#ED6339"/>
<path d="M137.092 135.714C137.101 135.276 137.463 134.928 137.901 134.937C138.339 134.946 138.688 135.309 138.679 135.747C138.67 136.185 138.307 136.533 137.869 136.524C137.431 136.515 137.083 136.152 137.092 135.714Z" fill="#FFE199"/>
<path d="M136.071 133.825C136.078 133.522 136.319 133.281 136.613 133.288C136.904 133.295 137.138 133.545 137.131 133.848C137.124 134.15 136.883 134.391 136.59 134.384C136.296 134.377 136.065 134.128 136.071 133.825Z" fill="#FFE199"/>
<path d="M137.55 136.12C137.555 135.9 137.77 135.728 138.03 135.733C138.291 135.737 138.497 135.921 138.493 136.139C138.488 136.359 138.273 136.531 138.014 136.526C137.752 136.521 137.546 136.34 137.55 136.12Z" fill="#FFEAB8"/>
<path d="M136.338 102.223C136.747 101.73 136.599 100.932 136.008 100.441C135.417 99.9502 134.605 99.9517 134.196 100.445C133.787 100.938 133.934 101.735 134.525 102.227C135.117 102.718 135.928 102.716 136.338 102.223Z" fill="#FFEAB8"/>
<path d="M130.556 101.123C130.267 101.469 129.8 101.554 129.508 101.313C129.217 101.073 129.215 100.596 129.504 100.249C129.793 99.9032 130.261 99.8183 130.552 100.059C130.843 100.3 130.845 100.777 130.556 101.123Z" fill="#FFEAB8"/>
<path d="M176.183 112.798C187.311 101.67 187.311 83.6289 176.183 72.5013C165.056 61.3738 147.015 61.3738 135.887 72.5013C124.759 83.6289 124.759 101.67 135.887 112.798C147.015 123.925 165.056 123.925 176.183 112.798Z" fill="#D34040"/>
<path d="M175.381 111.995C186.065 101.311 186.065 83.9882 175.381 73.304C164.696 62.6197 147.374 62.6197 136.689 73.304C126.005 83.9882 126.005 101.311 136.689 111.995C147.374 122.679 164.696 122.679 175.381 111.995Z" fill="#F35C53"/>
<path d="M174.836 111.45C185.219 101.067 185.219 84.2322 174.836 73.8488C164.453 63.4654 147.618 63.4654 137.234 73.8488C126.851 84.2321 126.851 101.067 137.234 111.45C147.618 121.834 164.453 121.834 174.836 111.45Z" fill="#F35C53"/>
<path d="M156.042 118.878C170.53 118.878 182.275 107.133 182.275 92.6453C182.275 78.1571 170.53 66.4121 156.042 66.4121C141.554 66.4121 129.809 78.1571 129.809 92.6453C129.809 107.133 141.554 118.878 156.042 118.878Z" fill="#C02E24"/>
<path d="M174.118 110.732C184.104 100.745 184.104 84.5537 174.118 74.5671C164.131 64.5804 147.939 64.5804 137.953 74.5671C127.966 84.5537 127.966 100.745 137.953 110.732C147.939 120.719 164.131 120.719 174.118 110.732Z" fill="#FF9D97"/>
<path d="M174.891 108.897C183.497 98.5347 181.972 83.0738 171.485 74.3643C160.997 65.6548 145.519 66.9948 136.913 77.3572C128.308 87.7196 129.833 103.18 140.32 111.89C150.807 120.599 166.285 119.26 174.891 108.897Z" fill="#DF6565"/>
<path d="M171.459 108.073C179.977 99.5548 179.977 85.7443 171.459 77.2262C162.941 68.7082 149.13 68.7082 140.612 77.2263C132.094 85.7443 132.094 99.5548 140.612 108.073C149.13 116.591 162.941 116.591 171.459 108.073Z" fill="#FF928A"/>
<path d="M156.042 113.586C167.607 113.586 176.982 104.21 176.982 92.6452C176.982 81.08 167.607 71.7046 156.042 71.7046C144.476 71.7046 135.101 81.08 135.101 92.6452C135.101 104.21 144.476 113.586 156.042 113.586Z" fill="#FF8585"/>
<path d="M156.041 111.832C166.638 111.832 175.228 103.242 175.228 92.6453C175.228 82.0489 166.638 73.4589 156.041 73.4589C145.445 73.4589 136.855 82.0489 136.855 92.6453C136.855 103.242 145.445 111.832 156.041 111.832Z" fill="#FF291C"/>
<path d="M169.132 105.746C176.365 98.513 176.365 86.786 169.132 79.553C161.899 72.32 150.172 72.32 142.939 79.553C135.706 86.786 135.706 98.513 142.939 105.746C150.172 112.979 161.899 112.979 169.132 105.746Z" fill="#D11C11"/>
<path d="M164.578 93.7472C165.203 89.0544 161.905 84.7435 157.212 84.1187C152.519 83.4938 148.208 86.7915 147.584 91.4843C146.959 96.1771 150.256 100.488 154.949 101.113C159.642 101.738 163.953 98.44 164.578 93.7472Z" fill="#DF6565"/>
<path d="M157.08 100.399C161.368 99.8079 164.365 95.8528 163.774 91.5647C163.183 87.2767 159.228 84.2796 154.94 84.8704C150.652 85.4613 147.655 89.4164 148.246 93.7045C148.837 97.9925 152.792 100.99 157.08 100.399Z" fill="#FF928A"/>
<path d="M157.24 99.8795C161.239 99.2063 163.934 95.419 163.261 91.4202C162.588 87.4214 158.801 84.7254 154.802 85.3986C150.803 86.0717 148.107 89.8591 148.78 93.8579C149.454 97.8567 153.241 100.553 157.24 99.8795Z" fill="#FF685F"/>
<path d="M165.429 73.7227C163.217 77.4765 161.001 81.2326 158.789 84.9864C158.878 85.3189 159.327 85.4359 159.644 85.2983C159.96 85.1607 160.167 84.858 160.357 84.5691C161.653 82.6107 162.948 80.6524 164.132 78.6253C164.891 77.3251 165.622 75.9447 165.721 74.4427C165.737 74.1859 165.684 73.858 165.434 73.796L165.429 73.7227Z" fill="#DF6565"/>
<path d="M156.989 89.5428C158.805 86.2774 160.621 83.0098 162.435 79.7444C163.765 77.3504 165.111 74.922 165.815 72.2941C168.514 72.8077 171.032 74.0919 173.006 75.9607C167.594 80.6754 162.511 85.7821 157.817 91.2237L156.989 89.5428Z" fill="#FF685F"/>
<path d="M175.325 101.586C174.623 101.595 173.99 101.199 173.387 100.843C170.259 98.9927 166.721 97.8393 163.102 97.4908C162.995 97.4816 162.869 97.4563 162.827 97.3577C162.798 97.2867 162.83 97.2064 162.859 97.1353C163.068 96.6446 163.274 96.1539 163.483 95.6632C163.543 95.521 163.612 95.3696 163.749 95.2962C164.001 95.161 164.293 95.3719 164.51 95.56C165.836 96.7042 167.485 97.3876 169.053 98.1672C171.011 99.1395 172.883 100.288 174.639 101.595L175.325 101.586Z" fill="#DF6565"/>
<path d="M159.814 92.6705C163.345 93.2163 166.876 93.7621 170.408 94.3078C172.997 94.7091 175.62 95.1104 178.225 94.8444C178.599 97.5365 178.216 100.33 177.133 102.824C171.167 99.4375 164.95 96.4932 158.548 94.0281L159.814 92.6705Z" fill="#FF685F"/>
<path d="M140.116 107.757C143.077 104.246 146.826 101.506 150.538 98.8C150.309 98.4147 150.004 98.0731 149.646 97.8002C147.695 99.309 145.84 100.939 144.092 102.68C142.545 104.221 141.063 105.881 140.121 107.851L140.116 107.757Z" fill="#DF6565"/>
<path d="M153.283 95.2273C150.626 97.6167 147.968 100.004 145.312 102.393C143.363 104.145 141.393 105.92 139.949 108.105C137.628 106.691 135.707 104.627 134.461 102.21C140.859 99.7333 147.074 96.7821 153.033 93.3837L153.283 95.2273Z" fill="#FF685F"/>
<path d="M156.609 114.684C155.779 110.002 155.402 105.237 155.487 100.481C155.902 100.355 156.336 100.297 156.769 100.311C157.68 105.005 157.725 109.867 156.904 114.579L156.609 114.684Z" fill="#DF6565"/>
<path d="M157.22 96.4499C158.445 99.807 159.667 103.164 160.892 106.521C161.788 108.982 162.701 111.474 164.189 113.63C162.011 115.256 159.378 116.267 156.672 116.519C156.764 109.66 156.344 102.793 155.418 95.9958L157.22 96.4499Z" fill="#FF685F"/>
<path d="M138.252 79.6138C139.562 79.8889 140.428 81.0836 141.35 82.0536C143.636 84.466 146.881 85.8877 148.872 88.55C149.071 88.3069 149.271 88.0639 149.47 87.8208C149.532 87.7451 149.596 87.6649 149.603 87.5685C149.612 87.447 149.53 87.3392 149.452 87.2452C146.815 84.0899 143.948 80.9323 140.183 79.279C139.493 78.9763 138.63 78.7447 138.032 79.2033C138.025 79.295 138.021 79.389 138.014 79.4808L138.252 79.6138Z" fill="#DF6565"/>
<path d="M152.487 90.1916C149.678 87.9833 146.872 85.7728 144.062 83.5645C142.003 81.9456 139.917 80.3083 137.516 79.2603C138.513 76.7311 140.217 74.4861 142.384 72.8442C145.92 78.7238 149.892 84.3396 154.26 89.6298L152.487 90.1916Z" fill="#FF685F"/>
<path d="M154.827 83.6587C153.46 82.5512 152.758 80.68 153.061 78.9464C153.203 78.1301 153.616 77.2862 154.379 76.9583C155.363 76.5364 156.565 77.1945 157.019 78.1645C157.47 79.1345 157.321 80.2879 156.948 81.29C156.574 82.2966 155.987 83.2231 155.235 83.9912C155.138 83.9408 154.909 83.7275 154.827 83.6587Z" fill="#DF6565"/>
<path d="M155.079 82.7599C153.955 81.8496 153.38 80.3109 153.627 78.8869C153.744 78.215 154.084 77.5202 154.71 77.2519C155.517 76.9033 156.507 77.4468 156.879 78.2448C157.25 79.0428 157.126 79.9899 156.822 80.8154C156.514 81.6432 156.03 82.4045 155.414 83.0374C155.336 82.9915 155.148 82.815 155.079 82.7599Z" fill="#ED6339"/>
<path d="M156.251 79.3339C155.971 79.671 155.471 79.7168 155.131 79.4371C154.794 79.1573 154.749 78.6574 155.028 78.318C155.308 77.9787 155.808 77.9351 156.147 78.2148C156.484 78.4946 156.53 78.9945 156.251 79.3339Z" fill="#FFE199"/>
<path d="M155.872 81.4457C155.68 81.6773 155.34 81.7162 155.115 81.5282C154.891 81.3425 154.865 81.0008 155.058 80.7692C155.251 80.5376 155.59 80.4986 155.815 80.6866C156.04 80.8724 156.065 81.2141 155.872 81.4457Z" fill="#FFE199"/>
<path d="M156.145 78.7287C156.005 78.8984 155.727 78.8984 155.528 78.7333C155.328 78.5659 155.278 78.2953 155.418 78.1256C155.558 77.956 155.833 77.956 156.034 78.1211C156.236 78.2885 156.284 78.5613 156.145 78.7287Z" fill="#FFEAB8"/>
<path d="M164.458 90.0726C164.873 88.3642 166.265 86.9287 167.96 86.4586C168.76 86.2362 169.698 86.25 170.321 86.798C171.124 87.5043 171.044 88.8756 170.36 89.6988C169.677 90.522 168.572 90.8797 167.506 90.9738C166.435 91.0678 165.345 90.9325 164.33 90.5839C164.339 90.4762 164.433 90.1758 164.458 90.0726Z" fill="#DF6565"/>
<path d="M165.38 89.9169C165.721 88.5113 166.865 87.3326 168.257 86.9451C168.916 86.7639 169.686 86.7731 170.2 87.2225C170.86 87.805 170.794 88.9309 170.232 89.6074C169.67 90.2861 168.762 90.5796 167.886 90.6553C167.005 90.7333 166.111 90.6209 165.276 90.3343C165.281 90.2471 165.359 90.0018 165.38 89.9169Z" fill="#ED6339"/>
<path d="M168.98 89.5065C168.556 89.3987 168.299 88.9653 168.407 88.5411C168.515 88.1169 168.948 87.86 169.372 87.9678C169.797 88.0756 170.053 88.509 169.946 88.9332C169.835 89.3597 169.404 89.6165 168.98 89.5065Z" fill="#FFE199"/>
<path d="M166.907 90.0704C166.613 89.9948 166.434 89.7058 166.508 89.4215C166.581 89.1371 166.877 88.9697 167.17 89.0454C167.464 89.1211 167.643 89.41 167.569 89.6944C167.496 89.9764 167.2 90.1461 166.907 90.0704Z" fill="#FFE199"/>
<path d="M169.479 89.1531C169.266 89.0981 169.147 88.8504 169.211 88.5982C169.275 88.346 169.5 88.1854 169.713 88.2382C169.927 88.2932 170.046 88.5409 169.982 88.7931C169.917 89.0453 169.69 89.2082 169.479 89.1531Z" fill="#FFEAB8"/>
<path d="M146.986 92.3908C145.796 93.6864 143.884 94.2689 142.173 93.8584C141.366 93.6658 140.549 93.2003 140.27 92.4184C139.91 91.4117 140.644 90.2514 141.639 89.8593C142.634 89.4694 143.776 89.6896 144.753 90.1252C145.734 90.5609 146.624 91.2053 147.342 92.0033C147.287 92.0973 147.057 92.3129 146.986 92.3908Z" fill="#DF6565"/>
<path d="M146.104 92.0818C145.124 93.1458 143.554 93.625 142.146 93.2902C141.483 93.132 140.811 92.7491 140.582 92.107C140.286 91.2792 140.889 90.3253 141.708 90.0042C142.526 89.6832 143.464 89.8666 144.269 90.2221C145.076 90.5798 145.805 91.1095 146.397 91.7653C146.351 91.841 146.163 92.0176 146.104 92.0818Z" fill="#ED6339"/>
<path d="M142.756 90.6985C143.074 90.9989 143.09 91.5011 142.79 91.8198C142.49 92.1386 141.987 92.1546 141.669 91.8542C141.35 91.5538 141.334 91.0517 141.634 90.7329C141.935 90.4142 142.437 90.3981 142.756 90.6985Z" fill="#FFE199"/>
<path d="M144.842 91.2077C145.063 91.4141 145.079 91.7558 144.879 91.969C144.68 92.1823 144.338 92.1869 144.118 91.9782C143.898 91.7719 143.882 91.4302 144.081 91.2169C144.281 91.006 144.622 91.0014 144.842 91.2077Z" fill="#FFE199"/>
<path d="M142.146 90.7675C142.306 90.9188 142.29 91.194 142.111 91.3843C141.932 91.5747 141.657 91.6068 141.499 91.4554C141.338 91.3041 141.354 91.0289 141.533 90.8386C141.712 90.6483 141.987 90.6161 142.146 90.7675Z" fill="#FFEAB8"/>
<path d="M152.749 101.121C153.332 102.781 152.946 104.742 151.781 106.06C151.231 106.682 150.438 107.184 149.617 107.062C148.557 106.906 147.881 105.714 148.002 104.65C148.126 103.586 148.858 102.685 149.702 102.027C150.548 101.366 151.534 100.885 152.577 100.625C152.63 100.717 152.712 101.022 152.749 101.121Z" fill="#DF6565"/>
<path d="M152.061 101.756C152.54 103.12 152.224 104.732 151.265 105.817C150.813 106.328 150.16 106.741 149.486 106.64C148.614 106.512 148.057 105.533 148.16 104.657C148.263 103.781 148.864 103.04 149.557 102.499C150.251 101.955 151.063 101.561 151.921 101.345C151.962 101.423 152.031 101.671 152.061 101.756Z" fill="#ED6339"/>
<path d="M149.266 104.058C149.681 103.919 150.133 104.141 150.273 104.556C150.412 104.971 150.19 105.423 149.775 105.563C149.36 105.703 148.908 105.48 148.768 105.065C148.626 104.648 148.851 104.198 149.266 104.058Z" fill="#FFE199"/>
<path d="M150.697 102.458C150.983 102.362 151.291 102.508 151.385 102.784C151.479 103.061 151.323 103.364 151.036 103.46C150.749 103.556 150.442 103.41 150.348 103.134C150.254 102.857 150.41 102.554 150.697 102.458Z" fill="#FFE199"/>
<path d="M149.039 104.627C149.248 104.556 149.484 104.701 149.566 104.948C149.649 105.196 149.548 105.453 149.342 105.521C149.133 105.593 148.897 105.448 148.814 105.2C148.729 104.955 148.83 104.698 149.039 104.627Z" fill="#FFEAB8"/>
<path d="M162.398 98.9562C164.157 98.9722 165.872 99.9996 166.716 101.543C167.113 102.27 167.317 103.189 166.925 103.918C166.418 104.861 165.067 105.095 164.109 104.618C163.15 104.141 162.549 103.146 162.217 102.13C161.882 101.109 161.765 100.018 161.873 98.9493C161.978 98.931 162.292 98.9562 162.398 98.9562Z" fill="#DF6565"/>
<path d="M162.76 99.8182C164.207 99.832 165.615 100.676 166.31 101.944C166.638 102.542 166.803 103.297 166.482 103.898C166.067 104.673 164.955 104.865 164.166 104.473C163.38 104.081 162.884 103.262 162.611 102.428C162.336 101.588 162.24 100.692 162.329 99.8136C162.416 99.7976 162.673 99.8182 162.76 99.8182Z" fill="#ED6339"/>
<path d="M163.98 103.231C163.989 102.793 164.352 102.444 164.79 102.453C165.228 102.462 165.576 102.825 165.567 103.263C165.558 103.701 165.195 104.049 164.757 104.04C164.317 104.031 163.971 103.669 163.98 103.231Z" fill="#FFE199"/>
<path d="M162.96 101.341C162.967 101.038 163.208 100.797 163.501 100.804C163.792 100.811 164.026 101.061 164.019 101.364C164.013 101.667 163.772 101.907 163.478 101.9C163.185 101.894 162.953 101.644 162.96 101.341Z" fill="#FFE199"/>
<path d="M164.439 103.636C164.443 103.416 164.659 103.244 164.918 103.249C165.179 103.253 165.386 103.437 165.381 103.654C165.376 103.875 165.161 104.047 164.902 104.042C164.64 104.037 164.434 103.854 164.439 103.636Z" fill="#FFEAB8"/>
<path d="M154.533 118.328C154.313 118.592 153.817 118.544 153.425 118.22C153.033 117.895 152.895 117.418 153.116 117.152C153.336 116.888 153.831 116.936 154.223 117.259C154.615 117.585 154.753 118.064 154.533 118.328Z" fill="#FFEAB8"/>
<path d="M148.766 113.134C148.655 113.267 148.449 113.276 148.305 113.157C148.16 113.038 148.133 112.834 148.243 112.701C148.353 112.568 148.559 112.559 148.704 112.678C148.848 112.797 148.876 113.001 148.766 113.134Z" fill="#FFEAB8"/>
<path d="M157.95 69.9211C155.78 69.4304 154.441 72.0491 152.655 73.3034C149.178 75.7433 143.693 72.8586 140.206 75.2801C138.777 76.273 137.993 78.1006 138.252 79.8434C138.477 81.3706 139.419 82.7396 139.644 84.2668C140.155 87.7546 136.821 90.5545 133.498 91.6574C130.485 92.6595 127.24 92.8888 124.213 93.852C121.186 94.8151 118.212 96.7757 117.352 99.8232C116.428 103.098 118.173 106.634 117.809 110.03C117.678 111.241 117.281 112.399 116.887 113.545C114.981 119.092 113.073 124.642 111.168 130.189C110.879 131.032 110.624 132.073 111.237 132.748C111.746 133.307 112.601 133.321 113.349 133.291C115.463 133.206 117.577 133.121 119.691 133.039C121.352 132.972 123.241 132.995 124.399 134.211C126.49 136.405 124.344 140.209 125.773 142.872C126.633 144.472 128.655 145.215 130.439 144.988C132.223 144.761 133.792 143.741 135.126 142.567C137.649 140.349 139.554 137.533 141.744 134.99C143.934 132.447 146.564 130.083 149.841 129.23C151.244 128.865 152.74 128.785 154.063 128.207C156.704 127.052 158.094 124.204 159.066 121.493C160.036 118.785 160.889 115.857 163.047 113.96C165.836 111.509 169.959 111.477 173.662 110.878C174.4 110.759 175.217 110.557 175.595 109.92C175.795 109.585 175.836 109.179 175.852 108.787C175.928 107.028 175.586 105.242 174.859 103.618C173.699 101.02 171.522 98.3419 172.483 95.7163C172.928 94.5032 173.981 93.6181 174.542 92.4577C175.705 90.0546 174.506 87.1148 172.889 84.9157C171.272 82.7166 169.19 80.756 168.282 78.1969C168.028 77.4769 167.872 76.7224 167.53 76.0368C167.092 75.1517 166.374 74.4339 165.618 73.7918C163.503 71.9986 160.99 70.6778 158.326 69.9624L157.95 69.9211Z" fill="#FF7169"/>
<path d="M158.207 70.1339C156.077 69.6753 154.724 72.2826 152.949 73.5461C149.495 76.0043 144.127 73.2158 140.66 75.658C139.241 76.6578 138.445 78.4785 138.679 80.1984C138.883 81.7072 139.793 83.051 139.995 84.5598C140.456 88.0041 137.135 90.8177 133.849 91.9505C130.868 92.9801 127.669 93.2461 124.677 94.2368C121.684 95.2274 118.729 97.204 117.844 100.231C116.892 103.485 118.568 106.961 118.167 110.327C118.022 111.527 117.619 112.68 117.215 113.82C115.268 119.335 113.321 124.85 111.375 130.365C111.079 131.202 110.817 132.236 111.411 132.896C111.904 133.444 112.748 133.447 113.484 133.408C115.569 133.298 117.651 133.187 119.735 133.077C121.37 132.99 123.232 132.99 124.358 134.178C126.392 136.324 124.23 140.115 125.603 142.731C126.429 144.304 128.415 145.015 130.174 144.768C131.935 144.52 133.489 143.49 134.822 142.312C137.335 140.085 139.245 137.276 141.435 134.731C143.625 132.185 146.244 129.814 149.482 128.929C150.869 128.551 152.341 128.455 153.653 127.865C156.269 126.689 157.675 123.852 158.665 121.158C159.656 118.466 160.532 115.556 162.681 113.655C165.458 111.194 169.519 111.109 173.174 110.474C173.903 110.348 174.71 110.137 175.089 109.502C175.288 109.169 175.334 108.766 175.357 108.378C175.453 106.638 175.139 104.874 174.444 103.274C173.334 100.717 171.222 98.0938 172.202 95.4819C172.653 94.2757 173.704 93.386 174.272 92.2303C175.446 89.8386 174.302 86.9424 172.736 84.7869C171.17 82.6291 169.145 80.7166 168.283 78.1942C168.04 77.4856 167.895 76.7403 167.57 76.0639C167.15 75.1948 166.451 74.4908 165.714 73.8671C163.655 72.1174 161.195 70.8425 158.581 70.166L158.207 70.1339Z" fill="#C1554D"/>
<path d="M165.636 77.3117C164.985 75.5002 163.985 73.8147 162.708 72.3747C161.963 71.5331 161.084 70.7534 160.011 70.4209C158.938 70.0884 157.633 70.3017 156.925 71.1754C156.104 72.1912 156.315 73.6817 155.838 74.8948C154.93 77.2062 151.845 77.8185 149.431 77.2315C147.016 76.6467 144.84 75.2456 142.393 74.8168C141.476 74.6563 140.472 74.6517 139.678 75.1424C137.853 76.2729 138.3 79.1049 139.481 80.8981C140.662 82.6913 142.395 84.308 142.574 86.4475C142.733 88.3462 141.54 90.1646 139.956 91.224C138.371 92.2834 136.452 92.7053 134.567 92.9759C129.893 93.6478 124.988 93.5492 120.696 95.5144C119.377 96.1175 118.054 97.0187 117.614 98.4014C116.82 100.894 119.173 103.13 120.606 105.317C122.01 107.459 122.576 110.381 121.248 112.571C120.705 113.465 119.882 114.189 119.499 115.164C119.175 115.99 119.205 116.902 119.113 117.783C118.604 122.644 114.52 126.201 111.516 130.058C111.127 130.558 110.732 131.158 110.872 131.775C111.035 132.495 111.844 132.86 112.576 132.977C116.403 133.589 120.104 130.374 123.915 131.078C126.055 131.475 127.853 133.142 128.632 135.171C129.412 137.203 129.233 139.533 128.378 141.532C128.038 142.326 127.587 143.128 127.658 143.988C127.749 145.085 128.729 145.965 129.806 146.194C130.884 146.424 132.01 146.1 132.98 145.58C137.518 143.14 138.605 137.237 141.448 132.943C143.969 129.136 148.387 126.419 152.941 126.719C154.354 126.813 155.851 127.168 157.131 126.561C158.92 125.712 159.424 123.396 159.332 121.42C159.241 119.443 158.787 117.381 159.504 115.538C159.903 114.511 160.635 113.653 161.353 112.818C162.944 110.963 164.778 108.977 167.209 108.727C168.784 108.567 170.321 109.179 171.86 109.553C173.398 109.927 175.191 110.007 176.393 108.973C177.927 107.652 177.714 105.134 176.67 103.4C175.627 101.667 173.965 100.401 172.699 98.8234C171.433 97.2457 170.566 95.0283 171.458 93.2144C171.979 92.1596 172.999 91.4373 173.634 90.4466C174.907 88.4654 174.371 85.7366 172.981 83.8333C171.591 81.9323 169.516 80.6711 167.496 79.4627L165.636 77.3117Z" fill="#F4D885"/>
<g opacity="0.3">
<path d="M254.481 55.481C267.173 42.7889 267.173 22.2111 254.481 9.51903C241.789 -3.17301 221.211 -3.17301 208.519 9.51903C195.827 22.2111 195.827 42.7889 208.519 55.481C221.211 68.173 241.789 68.173 254.481 55.481Z" fill="#3DA0A7"/>
<path d="M231.502 63.9884C248.892 63.9884 262.99 49.8906 262.99 32.5001C262.99 15.1095 248.892 1.01172 231.502 1.01172C214.111 1.01172 200.013 15.1095 200.013 32.5001C200.013 49.8906 214.111 63.9884 231.502 63.9884Z" fill="#FFF6FA"/>
<path d="M253.355 54.3551C265.426 42.2847 265.426 22.7147 253.355 10.6442C241.285 -1.42617 221.715 -1.42617 209.645 10.6442C197.574 22.7147 197.574 42.2847 209.645 54.3551C221.715 66.4255 241.285 66.4255 253.355 54.3551Z" fill="#BCE5E8"/>
<path d="M218.616 60.5934C222.539 62.3958 226.901 63.4087 231.502 63.4087C248.572 63.4087 262.41 49.5704 262.41 32.5002C262.41 22.6276 257.775 13.8427 250.57 8.18396C251.278 11.848 251.527 15.626 251.759 19.3611C252.014 23.4408 252.264 27.5698 251.518 31.5885C250.595 36.5516 248.187 41.1219 245.394 45.3265C242.344 49.9159 238.723 54.2409 234.096 57.2321C229.545 60.1741 223.91 61.713 218.616 60.5934Z" fill="#8FD2D7"/>
<path d="M256.965 51.3135C256.965 51.7803 256.619 52.1586 256.191 52.1586C255.763 52.1586 255.417 51.7803 255.417 51.3135C255.417 50.8467 255.763 50.4684 256.191 50.4684C256.619 50.4684 256.965 50.8467 256.965 51.3135Z" fill="white"/>
<path d="M253.797 55.08C253.797 55.41 253.505 55.6781 253.146 55.6781C252.787 55.6781 252.495 55.41 252.495 55.08C252.495 54.75 252.787 54.4819 253.146 54.4819C253.505 54.4819 253.797 54.75 253.797 55.08Z" fill="white"/>
<path d="M249.041 50.0404C258.729 40.3528 258.729 24.6463 249.041 14.9588C239.354 5.27123 223.647 5.27123 213.959 14.9588C204.272 24.6463 204.272 40.3528 213.959 50.0404C223.647 59.7279 239.354 59.7279 249.041 50.0404Z" fill="#FFF6FA"/>
<path d="M231.502 56.2418C244.614 56.2418 255.243 45.6122 255.243 32.4999C255.243 19.3876 244.614 8.75806 231.502 8.75806C218.389 8.75806 207.76 19.3876 207.76 32.4999C207.76 45.6122 218.389 56.2418 231.502 56.2418Z" fill="#ADDFE2"/>
<path d="M246.443 47.4425C254.696 39.1898 254.696 25.8095 246.443 17.5568C238.19 9.30403 224.81 9.30402 216.557 17.5567C208.304 25.8095 208.304 39.1898 216.557 47.4425C224.81 55.6953 238.19 55.6953 246.443 47.4425Z" fill="#FFF6FA"/>
<path d="M231.502 52.7463C242.843 52.7463 252.037 43.6816 252.037 32.4998C252.037 21.318 242.843 12.2533 231.502 12.2533C220.16 12.2533 210.966 21.318 210.966 32.4998C210.966 43.6816 220.16 52.7463 231.502 52.7463Z" fill="#BCE5E8"/>
<path d="M208.249 12.2528C208.677 12.2528 209.023 11.8564 209.023 11.3675C209.023 10.8786 208.677 10.4823 208.249 10.4823C207.822 10.4823 207.475 10.8786 207.475 11.3675C207.475 11.8564 207.822 12.2528 208.249 12.2528Z" fill="white"/>
<path d="M211.694 9.09748C212.163 9.09748 212.544 8.71951 212.544 8.25327C212.544 7.78702 212.163 7.40906 211.694 7.40906C211.225 7.40906 210.844 7.78702 210.844 8.25327C210.844 8.71951 211.225 9.09748 211.694 9.09748Z" fill="white"/>
<path d="M236.124 34.2145C235.895 35.6439 235.208 36.5587 234.178 37.1305C233.147 37.8738 231.83 37.8738 230.399 37.931C229.025 37.5879 227.823 36.8446 226.964 36.1585C226.162 35.1293 225.704 34.1573 225.876 32.785C225.933 32.442 226.964 33.414 228.567 33.1281C230.113 33.2996 232.002 33.6999 233.548 33.8142C234.979 34.1001 236.124 34.1573 236.124 34.2145Z" fill="#98C779"/>
<path d="M234.119 37.1877C233.432 37.6451 232.631 37.8166 231.772 37.931C231.944 37.8738 232.173 37.7594 232.344 37.6451C233.432 37.0161 234.234 36.1013 234.634 34.5003C234.634 34.4432 233.489 34.2716 232.001 33.9857C230.913 33.8142 229.596 33.5283 228.394 33.2424C228.394 33.2424 228.394 33.2424 228.451 33.2424C229.997 33.414 231.886 33.8142 233.432 33.9286C234.978 34.1573 236.123 34.2144 236.123 34.2716C235.894 35.6439 235.15 36.5587 234.119 37.1877Z" fill="#7AAE56"/>
<path d="M225.818 32.8417C225.875 32.7276 226.047 32.8417 226.39 32.9557C226.161 32.8987 225.99 32.8987 225.818 32.8417Z" fill="#8D9A24"/>
<path d="M230.57 38.5033C229.825 39.7612 228.795 40.2758 227.593 40.4474C226.333 40.6761 225.131 40.2187 223.814 39.7041C222.669 38.8464 221.867 37.6457 221.352 36.7308C221.009 35.473 220.951 34.3866 221.638 33.1859C221.81 32.9 222.383 34.2151 223.928 34.5581C225.245 35.3586 226.848 36.3878 228.222 37.1311C229.539 37.9316 230.57 38.4462 230.57 38.5033Z" fill="#98C779"/>
<path d="M227.592 40.447C226.791 40.6185 225.989 40.447 225.188 40.2183C225.417 40.2183 225.589 40.2183 225.818 40.1611C227.077 39.9896 228.165 39.475 229.138 38.1599C229.195 38.1027 228.165 37.5309 226.905 36.6161C225.932 36.0443 224.902 35.2439 223.871 34.5577C223.871 34.5577 223.871 34.5577 223.928 34.5577C225.245 35.3582 226.848 36.3874 228.222 37.1307C229.539 37.9312 230.57 38.4458 230.512 38.503C229.768 39.7037 228.795 40.2755 227.592 40.447Z" fill="#7AAE56"/>
<path d="M221.638 33.1282C221.695 33.0139 221.867 33.1854 222.096 33.4713C221.924 33.3569 221.81 33.2426 221.638 33.1282Z" fill="#8D9A24"/>
<path d="M225.302 36.4451C224.844 37.8173 223.986 38.5606 222.841 39.018C221.696 39.5326 220.379 39.3611 218.948 39.1896C217.631 38.6178 216.6 37.6458 215.856 36.8453C215.226 35.7018 214.94 34.6726 215.341 33.3575C215.455 33.0716 216.314 34.158 217.917 34.158C219.406 34.6154 221.18 35.3015 222.669 35.6446C224.215 36.102 225.302 36.3879 225.302 36.4451Z" fill="#98C779"/>
<path d="M222.898 39.0177C222.153 39.3607 221.352 39.4179 220.493 39.3607C220.722 39.3035 220.894 39.2464 221.123 39.132C222.325 38.6746 223.241 37.9313 223.928 36.4447C223.928 36.3875 222.84 36.0444 221.409 35.4727C220.321 35.1296 219.119 34.615 217.974 34.1576C217.974 34.1576 217.974 34.1576 218.031 34.1576C219.52 34.615 221.295 35.3011 222.783 35.6442C224.272 36.1016 225.36 36.3875 225.36 36.4447C224.844 37.8169 223.986 38.5602 222.898 39.0177Z" fill="#7AAE56"/>
<path d="M215.398 33.2999C215.455 33.1855 215.627 33.2999 215.913 33.5286C215.741 33.4714 215.57 33.357 215.398 33.2999Z" fill="#8D9A24"/>
<path d="M242.879 16.6039C243.852 16.1465 247.173 16.4324 247.459 16.6039C247.803 17.0614 247.745 17.4616 247.688 17.5188C247.631 17.6331 243.68 17.2901 242.879 16.6039Z" fill="#F05942"/>
<path d="M242.363 16.3183C243.566 15.9181 247.859 16.4899 248.26 16.6614C248.718 17.176 248.718 17.519 248.661 17.6334C248.604 17.8049 243.451 17.1188 242.363 16.3183Z" fill="#EF6837"/>
<path d="M242.134 16.3754C243.05 17.2331 247.172 18.5482 247.63 18.5482C248.26 18.2623 248.432 17.9192 248.432 17.8049C248.432 17.6905 243.451 16.0895 242.134 16.3754Z" fill="#FF975C"/>
<path d="M242.363 16.204C243.451 15.6322 247.287 15.575 247.688 15.6894C248.146 16.204 248.146 16.6042 248.088 16.7186C248.031 16.8901 243.337 16.8901 242.363 16.204Z" fill="#FE804E"/>
<path d="M242.192 16.6041C243.28 16.6041 246.428 18.3766 246.715 18.6053C246.944 19.2343 246.772 19.5773 246.715 19.6917C246.6 19.806 242.764 17.6333 242.192 16.6041Z" fill="#FE804E"/>
<path d="M242.192 16.6617C242.65 17.6338 245.398 20.0924 245.684 20.2639C246.257 20.3211 246.429 20.0924 246.486 20.0352C246.543 19.978 243.222 17.0048 242.192 16.6617Z" fill="#EA6F5E"/>
<path d="M242.478 15.7464C242.363 15.2889 241.848 14.8315 241.161 14.5456C241.046 14.4885 240.989 14.4885 240.875 14.4313C240.817 14.3741 240.76 14.3741 240.76 14.3169C240.531 13.9739 240.13 13.688 239.615 13.4593H239.558C239.501 13.4021 239.386 13.3449 239.329 13.2877C239.157 12.8875 238.699 12.5444 238.127 12.2585C238.069 12.2585 238.069 12.2585 238.012 12.2014C237.783 11.8583 237.382 11.5152 236.867 11.3437C236.466 11.1722 236.123 11.115 235.779 11.115C235.608 10.9435 235.321 10.8291 235.092 10.7148C234.749 10.6004 234.462 10.5432 234.176 10.4861C234.176 10.4861 234.176 10.4861 234.119 10.4861C233.89 10.2002 233.546 9.97146 233.146 9.79993C232.63 9.57122 232.172 9.57122 231.772 9.6284C231.543 9.39969 231.199 9.17098 230.856 8.99945C230.684 8.94227 230.455 8.8851 230.283 8.82792C230.054 8.48486 229.653 8.19897 229.138 8.02744C228.394 7.74155 227.65 7.74155 227.249 8.02744C227.077 7.91308 226.963 7.85591 226.734 7.79873C226.276 7.68437 225.76 7.74155 225.474 7.91308C225.417 7.91308 225.36 7.91308 225.245 7.8559C225.131 7.74155 224.959 7.68437 224.844 7.62719C224.443 7.51284 224.043 7.62719 223.756 7.91308C223.642 7.97026 223.47 8.02744 223.356 8.08461C222.669 7.91308 221.982 8.25615 221.81 8.82792C221.753 8.99945 221.753 9.17098 221.81 9.34251L221.753 9.39969C221.409 9.51404 221.066 9.79993 221.008 10.143C220.951 10.3145 220.951 10.4861 221.008 10.6576C220.779 10.7719 220.493 11.115 220.379 11.5152C220.264 11.9155 220.264 12.3157 220.436 12.5444C220.436 13.1162 221.123 13.7452 222.039 14.031C222.325 14.0882 222.554 14.1454 222.84 14.1454C223.184 14.4885 223.642 14.7743 224.272 14.9459C224.615 15.0602 224.959 15.0602 225.245 15.0602C225.531 15.2889 225.932 15.4605 226.333 15.5748C226.791 15.6892 227.192 15.7464 227.592 15.6892C227.592 15.6892 227.592 15.6892 227.65 15.6892C227.993 15.9751 228.394 16.2038 228.966 16.3753C229.711 16.604 230.398 16.5468 230.856 16.3753C231.371 16.5468 231.886 16.5468 232.287 16.4325C232.573 16.5468 232.917 16.6612 233.317 16.6612C233.718 16.6612 234.119 16.604 234.405 16.4897C234.462 16.4897 234.462 16.4897 234.52 16.4897C234.749 16.6612 235.092 16.8327 235.493 16.8327C235.779 16.8327 236.066 16.7755 236.295 16.6612C236.638 16.8899 237.096 17.0614 237.669 17.1186C238.241 17.1186 238.756 17.0042 239.1 16.7755C239.214 16.7755 239.272 16.7755 239.386 16.7755C239.443 16.7755 239.443 16.8327 239.501 16.8327C240.016 17.0614 240.531 17.1186 240.932 17.0042C242.077 17.2901 243.909 17.1758 242.478 15.7464Z" fill="#F8D581"/>
<path d="M242.936 16.8898C242.593 17.2328 241.619 17.2328 240.818 17.1185C240.417 17.2328 239.902 17.1756 239.387 16.9469C239.329 16.9469 239.329 16.9469 239.272 16.8898C239.215 16.8898 239.1 16.8898 238.986 16.8898C238.642 17.1185 238.127 17.2328 237.555 17.2328C236.982 17.2328 236.467 17.0613 236.18 16.7754C235.951 16.8898 235.665 16.9469 235.379 16.9469C234.978 16.9469 234.635 16.7754 234.406 16.6039C234.406 16.6039 234.348 16.6039 234.291 16.6039C234.005 16.7182 233.604 16.7754 233.203 16.7754C232.803 16.7754 232.459 16.6611 232.173 16.5467C231.829 16.6611 231.314 16.661 230.742 16.4895C230.284 16.7182 229.597 16.7182 228.852 16.4895C228.337 16.318 227.879 16.0893 227.535 15.8034H227.478C227.077 15.8606 226.677 15.8034 226.219 15.689C225.818 15.5747 225.417 15.4032 225.131 15.1744C224.845 15.1744 224.501 15.1173 224.158 15.0029C223.585 14.8314 223.07 14.5455 222.726 14.2024C222.497 14.2024 222.211 14.1453 221.925 14.0881C221.009 13.8022 220.322 13.1732 220.322 12.6015C220.207 12.3728 220.15 11.9725 220.265 11.5723C220.322 11.4008 220.379 11.2292 220.494 11.1149C220.494 11.172 220.551 11.2292 220.551 11.2864C220.551 11.9153 221.238 12.6586 222.211 13.0017C222.497 13.1161 222.784 13.1732 223.07 13.1732C223.413 13.5735 223.929 13.8594 224.558 14.0881C224.902 14.2024 225.303 14.2596 225.646 14.2596C225.932 14.4883 226.333 14.717 226.791 14.8314C227.249 15.0029 227.765 15.0601 228.165 15.0029C228.165 15.0029 228.165 15.0029 228.223 15.0029C228.566 15.346 229.024 15.6319 229.597 15.8034C230.398 16.0321 231.142 16.0321 231.658 15.8606C232.23 16.0321 232.803 16.0893 233.203 15.9177C233.49 16.0893 233.89 16.2036 234.348 16.2036C234.806 16.2608 235.207 16.1465 235.551 16.0321C235.608 16.0321 235.608 16.0321 235.665 16.0321C235.894 16.2608 236.295 16.4323 236.696 16.4323C237.039 16.4323 237.325 16.3752 237.555 16.2608C237.898 16.5467 238.413 16.7754 239.043 16.7754C239.673 16.8326 240.245 16.661 240.589 16.4323C240.703 16.4323 240.761 16.4323 240.875 16.4895C240.932 16.4895 240.932 16.5467 240.99 16.5467C241.562 16.8326 242.135 16.8898 242.593 16.7754C242.707 16.8326 242.822 16.8326 242.936 16.8898Z" fill="#F4C960"/>
<path d="M225.646 9.17143C225.589 9.22861 225.531 9.22861 225.474 9.28579C225.531 9.28579 225.531 9.28579 225.589 9.22861C225.989 9.11425 226.39 9.11425 226.734 9.28579C226.848 9.34296 226.963 9.45732 227.077 9.51449C227.592 9.28579 228.68 9.57167 229.081 10.1434C229.482 10.0863 229.94 10.1434 230.283 10.3722C230.512 10.4865 230.684 10.658 230.799 10.7724C230.97 10.4293 230.684 10.1434 230.283 9.85756C229.94 9.68603 229.539 9.62885 229.195 9.68603C228.852 9.22861 227.879 8.94272 227.421 9.17143C227.306 9.05708 227.249 8.9999 227.134 8.94272C226.848 8.77119 226.447 8.82837 226.104 8.88555C226.047 8.88555 225.932 8.94272 225.875 8.94272C225.76 9.05708 225.703 9.11426 225.646 9.17143Z" fill="#F4C960"/>
<path d="M240.131 20.949C240.99 20.32 244.31 19.9769 244.596 20.0341C244.997 20.4344 245.054 20.7774 244.997 20.8918C244.997 21.0633 240.99 21.4636 240.131 20.949Z" fill="#F05942"/>
<path d="M239.558 20.7774C240.646 20.2056 244.94 19.9197 245.398 19.9769C245.97 20.3771 246.028 20.7774 245.97 20.8917C245.97 21.0061 240.76 21.3492 239.558 20.7774Z" fill="#EF6837"/>
<path d="M239.329 20.8346C240.417 21.5207 244.711 21.9781 245.112 21.921C245.684 21.5207 245.799 21.1777 245.741 21.0633C245.741 20.9489 240.531 20.3772 239.329 20.8346Z" fill="#FF975C"/>
<path d="M239.5 20.6632C240.417 19.8627 244.195 19.1194 244.596 19.1766C245.111 19.5768 245.226 19.977 245.168 20.0914C245.226 20.2057 240.646 21.1778 239.5 20.6632Z" fill="#FE804E"/>
<path d="M239.444 21.1206C240.474 20.8919 243.967 22.0355 244.253 22.2642C244.596 22.836 244.539 23.179 244.482 23.2934C244.425 23.3506 240.188 22.0355 239.444 21.1206Z" fill="#FE804E"/>
<path d="M239.444 21.1771C240.074 22.0348 243.222 23.9788 243.566 24.036C244.138 23.9788 244.253 23.7501 244.253 23.6357C244.31 23.5786 240.532 21.2915 239.444 21.1771Z" fill="#EA6F5E"/>
<path d="M239.558 20.149C239.386 19.7487 238.814 19.3485 238.069 19.2341C237.955 19.2341 237.84 19.1769 237.783 19.1769C237.726 19.1769 237.669 19.1198 237.611 19.1198C237.325 18.8339 236.867 18.6052 236.352 18.4908H236.295C236.18 18.4336 236.123 18.4336 236.008 18.3765C235.779 18.0334 235.264 17.7475 234.634 17.6332C234.577 17.6332 234.577 17.6332 234.52 17.6332C234.234 17.3473 233.776 17.1186 233.203 17.0042C232.802 16.947 232.401 16.947 232.115 17.0042C231.886 16.8899 231.657 16.7755 231.371 16.7183C231.027 16.6611 230.684 16.6612 230.455 16.6612C230.455 16.6612 230.455 16.6612 230.398 16.6612C230.111 16.4324 229.711 16.2609 229.31 16.2037C228.795 16.0894 228.279 16.1466 227.936 16.2609C227.65 16.0894 227.306 15.9178 226.905 15.8607C226.676 15.8035 226.505 15.8035 226.276 15.8035C225.989 15.5176 225.531 15.3461 225.016 15.2317C224.215 15.0602 223.528 15.2317 223.184 15.5748C223.012 15.5176 222.841 15.4604 222.669 15.4604C222.153 15.4033 221.695 15.5748 221.466 15.8035C221.409 15.8035 221.352 15.8035 221.237 15.8035C221.123 15.7463 220.951 15.6891 220.779 15.632C220.379 15.5748 219.978 15.8035 219.806 16.0894C219.692 16.1466 219.577 16.2037 219.463 16.3181C218.718 16.3181 218.146 16.7755 218.089 17.3473C218.089 17.5188 218.089 17.6903 218.203 17.8619L218.146 17.919C217.802 18.0906 217.573 18.4336 217.516 18.7767C217.516 18.9482 217.516 19.1198 217.631 19.2913C217.402 19.4628 217.23 19.8059 217.173 20.2633C217.115 20.6636 217.23 21.0638 217.402 21.2925C217.516 21.8643 218.26 22.3217 219.234 22.436C219.52 22.436 219.806 22.436 220.035 22.3789C220.436 22.6076 220.951 22.8363 221.581 22.8935C221.924 22.9506 222.268 22.8935 222.554 22.8363C222.898 23.0078 223.299 23.065 223.699 23.1222C224.157 23.1793 224.615 23.1222 224.959 23.0078C224.959 23.0078 224.959 23.0078 225.016 23.0078C225.36 23.2365 225.875 23.4081 226.447 23.4081C227.192 23.4652 227.879 23.2937 228.279 23.0078C228.852 23.065 229.367 22.9506 229.711 22.7791C229.997 22.8363 230.398 22.8935 230.798 22.8363C231.199 22.7791 231.543 22.6648 231.829 22.4932C231.886 22.4932 231.886 22.4932 231.943 22.4932C232.23 22.6076 232.573 22.6648 232.974 22.6076C233.26 22.5504 233.547 22.436 233.718 22.3217C234.062 22.4932 234.577 22.6076 235.15 22.4932C235.722 22.436 236.18 22.2073 236.466 21.9214C236.581 21.9214 236.638 21.9214 236.753 21.8643C236.81 21.8643 236.81 21.8643 236.867 21.8643C237.44 21.9786 237.955 21.9215 238.298 21.7499C239.443 21.8071 241.275 21.2925 239.558 20.149Z" fill="#F8D581"/>
<path d="M240.188 21.2351C239.959 21.6354 238.986 21.8069 238.184 21.8641C237.841 22.0356 237.268 22.0928 236.696 21.9784C236.638 21.9784 236.638 21.9784 236.581 21.9784C236.524 21.9784 236.409 21.9784 236.295 21.9784C236.009 22.2643 235.551 22.493 234.978 22.5502C234.406 22.6646 233.89 22.5502 233.547 22.3787C233.318 22.5502 233.089 22.6074 232.803 22.6646C232.402 22.7217 232.058 22.6646 231.772 22.5502H231.715C231.429 22.7217 231.085 22.8361 230.684 22.8933C230.284 22.9505 229.94 22.9505 229.597 22.8361C229.253 23.0076 228.738 23.122 228.165 23.0648C227.764 23.3507 227.077 23.5222 226.333 23.465C225.761 23.4079 225.303 23.2363 224.902 23.0648H224.845C224.501 23.1792 224.043 23.2363 223.585 23.1792C223.184 23.122 222.784 23.0648 222.44 22.8933C222.154 22.9505 221.81 22.9505 221.467 22.9505C220.837 22.8933 220.322 22.7217 219.921 22.4359C219.692 22.493 219.406 22.493 219.12 22.4359C218.146 22.3787 217.345 21.8641 217.23 21.2923C217.058 21.0636 216.944 20.7205 217.001 20.2631C217.001 20.0916 217.058 19.9201 217.116 19.7485C217.116 19.8057 217.173 19.8629 217.173 19.8629C217.287 20.4918 218.089 21.0636 219.177 21.2351C219.463 21.2923 219.749 21.2923 220.036 21.2351C220.436 21.521 221.009 21.7497 221.696 21.8641C222.097 21.9213 222.44 21.9213 222.784 21.8641C223.127 22.0356 223.528 22.15 224.043 22.2071C224.558 22.2643 225.016 22.2072 225.417 22.15C225.417 22.15 225.417 22.15 225.474 22.15C225.875 22.4359 226.39 22.6074 227.02 22.6646C227.822 22.7789 228.566 22.6074 229.024 22.3215C229.654 22.3787 230.169 22.3215 230.57 22.0928C230.913 22.2072 231.314 22.2072 231.715 22.15C232.173 22.0928 232.574 21.9784 232.86 21.7497C232.917 21.7497 232.917 21.7497 232.974 21.7497C233.261 21.9213 233.661 21.9784 234.062 21.9213C234.406 21.8641 234.692 21.7497 234.921 21.6354C235.322 21.8641 235.894 21.9784 236.467 21.8641C237.096 21.8069 237.612 21.521 237.955 21.2351C238.07 21.2351 238.127 21.2351 238.242 21.2351C238.299 21.2351 238.299 21.2351 238.356 21.2923C238.986 21.4638 239.558 21.4067 239.959 21.2351C240.016 21.2351 240.074 21.2351 240.188 21.2351Z" fill="#F4C960"/>
<path d="M237.955 26.8959C238.757 27.6964 241.848 28.3253 242.192 28.2681C242.592 27.8107 242.65 27.4105 242.592 27.239C242.592 27.1246 238.814 26.3813 237.955 26.8959Z" fill="#F05942"/>
<path d="M237.383 27.0671C238.413 27.8676 242.478 28.4393 242.879 28.3822C243.451 27.9247 243.509 27.5245 243.509 27.353C243.509 27.2386 238.585 26.4953 237.383 27.0671Z" fill="#EF6837"/>
<path d="M237.211 26.9532C238.241 26.2671 242.364 25.924 242.764 26.0384C243.28 26.553 243.337 27.0104 243.337 27.1248C243.28 27.2963 238.356 27.6394 237.211 26.9532Z" fill="#FF975C"/>
<path d="M237.383 27.1819C238.242 28.1539 241.791 29.3546 242.192 29.2974C242.707 28.84 242.822 28.3826 242.822 28.2111C242.764 28.0967 238.413 26.7245 237.383 27.1819Z" fill="#FE804E"/>
<path d="M237.269 26.6673C238.242 27.0104 241.62 25.8668 241.906 25.6381C242.249 24.952 242.192 24.5517 242.135 24.4374C242.135 24.323 238.07 25.6381 237.269 26.6673Z" fill="#FE804E"/>
<path d="M237.325 26.6102C238.012 25.6382 241.104 23.5798 241.447 23.4655C241.963 23.5798 242.077 23.8657 242.077 23.98C242.077 24.0944 238.356 26.553 237.325 26.6102Z" fill="#EA6F5E"/>
<path d="M237.269 27.8681C237.097 27.9825 236.925 28.0969 236.639 28.2684C234.807 28.9545 233.146 30.4411 231.085 30.7842C230.914 30.8414 230.685 30.8985 230.513 30.8985C229.54 31.1272 228.624 31.2416 227.65 31.4131C227.421 31.4131 227.192 31.4703 226.963 31.4703C225.131 31.4703 223.013 32.0993 221.066 31.9849C220.895 31.9849 220.723 31.9849 220.551 31.9277C220.379 31.9277 220.208 31.8705 220.036 31.8134C219.807 31.7562 219.578 31.699 219.349 31.5847C217.517 30.6126 216.028 28.8973 216.2 26.6674C216.2 26.4959 216.2 26.3244 216.2 26.21C216.2 25.8669 216.2 25.5811 216.2 25.2952C216.257 25.0093 216.372 24.7806 216.486 24.6662C216.601 24.5519 216.83 24.4947 217.173 24.3803C217.345 24.3232 217.574 24.3232 217.746 24.266C219.807 23.8657 221.925 23.6942 223.986 23.4083C224.215 23.4083 224.387 23.4655 224.616 23.4655C224.788 23.4655 225.017 23.5227 225.189 23.5799C225.36 23.637 225.589 23.637 225.761 23.6942C226.334 23.8657 226.906 23.9801 227.479 24.0944C227.65 24.1516 227.879 24.1516 228.051 24.2088C230.112 24.0944 231.83 25.1236 233.948 25.4095C234.12 25.4095 234.291 25.4667 234.463 25.4667C235.322 25.5811 236.238 25.6954 237.097 25.9241C237.326 25.9813 237.498 26.0956 237.669 26.21C238.242 26.6674 238.242 27.182 237.269 27.8681Z" fill="#F8D581"/>
<path d="M219.234 29.6406C219.406 28.5542 218.376 28.0968 217.517 28.3255C217.288 28.5542 217.116 28.7258 216.887 28.9545C216.486 29.5834 216.486 30.2124 216.887 30.6126C217.517 31.2415 218.776 30.8413 219.12 30.1552C219.234 29.9837 219.234 29.8121 219.234 29.6406Z" fill="#F8D581"/>
<path d="M218.776 27.9252C218.547 27.0675 217.689 26.2098 216.887 26.6673C216.028 27.2962 216.028 28.7828 217.116 29.4118C217.746 29.6405 218.376 29.0115 218.719 28.4969C218.776 28.2682 218.776 28.0967 218.776 27.9252Z" fill="#F8D581"/>
<path d="M217.231 26.1527C217.231 25.9812 217.231 25.8097 217.174 25.6381C217.059 25.1235 216.83 24.8376 216.544 24.8376C216.372 24.8376 216.2 25.0092 216.086 25.2379C215.971 25.6381 215.914 25.9812 215.914 26.3243C215.914 26.4958 215.914 26.6673 215.971 26.8388C215.857 27.4678 216.258 27.4678 216.716 27.4678C216.945 27.2391 217.116 27.0676 217.231 26.6673C217.231 26.553 217.231 26.3242 217.231 26.1527Z" fill="#F8D581"/>
<path d="M222.269 24.7229C221.925 23.0647 219.864 22.8932 218.776 23.6937C217.918 24.3226 218.376 25.8092 219.406 26.0379C220.265 26.2667 221.067 25.8092 221.983 25.3518C222.154 25.1231 222.269 24.9516 222.269 24.7229Z" fill="#F8D581"/>
<path d="M220.093 25.0662C219.406 24.1514 218.547 23.5225 217.631 23.7512C217.459 23.8084 217.287 23.9227 217.116 24.0371C217.001 24.0942 216.829 24.1514 216.715 24.2658C216.543 24.3801 216.429 24.5517 216.314 24.7232C216.2 24.8947 216.2 25.0662 216.2 25.2378C216.2 25.638 216.371 25.8667 216.6 26.0383C216.772 26.2098 217.001 26.3241 217.173 26.3813C217.459 26.3813 217.745 26.4385 218.032 26.4385C218.203 26.4385 218.318 26.4385 218.49 26.3813C218.948 26.1526 219.406 25.9239 219.807 25.638C220.036 25.4665 220.093 25.295 220.093 25.0662Z" fill="#F8D581"/>
<path d="M224.444 24.551C224.33 24.3795 224.215 24.2079 224.101 24.0936C223.986 23.9792 223.872 23.8649 223.757 23.7505C222.383 22.6641 219.807 23.4646 220.666 25.4087C221.066 26.2663 222.154 26.2663 223.185 25.8661C223.414 25.8661 223.585 25.8089 223.757 25.6945C223.929 25.5802 224.043 25.4658 224.158 25.2943C224.387 25.0084 224.444 24.7797 224.444 24.551Z" fill="#F8D581"/>
<path d="M227.078 24.3803C226.849 23.8657 226.62 23.6941 226.333 23.5226C226.219 23.4083 226.047 23.3511 225.933 23.2939C225.761 23.2367 225.589 23.1795 225.417 23.1795C225.246 23.1224 225.131 23.1224 224.959 23.0652C224.788 23.0652 224.673 23.0652 224.501 23.0652C224.33 23.0652 224.158 23.1224 223.986 23.1795C223.184 23.2367 222.383 25.1236 223.642 25.4095C223.814 25.5238 223.986 25.6382 224.158 25.6953C224.33 25.7525 224.501 25.8097 224.73 25.8097C224.902 25.8097 225.074 25.8097 225.303 25.7525C225.761 25.5238 226.391 25.2951 226.791 25.0092C226.963 24.8949 227.078 24.6661 227.078 24.3803Z" fill="#F8D581"/>
<path d="M222.211 31.127C221.753 30.6124 221.524 29.9834 220.551 30.2693C220.494 30.3837 220.379 30.4408 220.265 30.498C219.921 30.7267 219.463 31.0126 219.635 31.6416C219.692 31.8131 219.807 31.9274 219.921 32.0418C220.207 32.2705 220.608 32.2705 221.009 32.099C221.123 32.0418 221.295 31.9846 221.41 31.9275C221.753 31.8131 221.982 31.5844 222.154 31.5272C222.211 31.47 222.211 31.2985 222.211 31.127Z" fill="#F8D581"/>
<path d="M224.845 31.0701C224.273 29.5835 222.612 29.8122 221.524 30.6127C220.895 31.2416 221.295 32.0993 221.925 32.4995C222.956 33.1285 224.044 32.4995 224.616 31.7562C224.788 31.5275 224.845 31.2988 224.845 31.0701Z" fill="#F8D581"/>
<path d="M227.02 30.7272C226.62 30.041 225.99 29.4121 225.131 29.5836C224.101 29.8123 222.784 30.8415 223.643 31.9279C224.673 32.9571 225.99 32.1566 226.849 31.4133C226.963 31.1846 227.02 30.9559 227.02 30.7272Z" fill="#F8D581"/>
<path d="M228.852 30.3838C228.681 29.5834 227.822 29.5833 227.192 29.469C227.02 29.469 226.849 29.469 226.734 29.5262C225.933 29.3546 225.761 29.9836 225.532 30.441C225.131 31.2987 225.933 31.6989 226.677 31.8133C226.849 31.8133 227.02 31.8704 227.135 31.8133C227.307 31.8133 227.421 31.7561 227.593 31.7561C227.765 31.6989 227.879 31.6417 227.994 31.5846C228.452 31.4702 228.623 31.2987 228.738 30.8413C228.852 30.6697 228.91 30.4982 228.852 30.3838Z" fill="#F8D581"/>
<path d="M230.856 29.8693C230.398 28.7258 229.31 28.9545 228.452 29.1832C227.822 29.4119 226.963 29.8121 227.421 30.6698C228.051 31.9277 229.94 31.5275 230.799 30.3839C230.856 30.1552 230.856 30.0409 230.856 29.8693Z" fill="#F8D581"/>
<path d="M232.631 29.6408C232.231 29.1262 231.601 28.726 230.914 28.6688C230.742 28.6688 230.57 28.726 230.456 28.7832C229.998 28.9547 229.597 29.2978 229.311 29.8124C229.082 30.67 230.17 31.4705 230.971 31.299C231.143 31.2418 231.315 31.1846 231.429 31.1274C231.83 30.8987 232.231 30.8987 232.517 30.1554C232.631 29.9839 232.689 29.8124 232.631 29.6408Z" fill="#F8D581"/>
<path d="M234.005 28.9543C233.318 27.8679 231.829 27.6392 230.913 28.6684C230.799 28.8399 230.742 28.9543 230.742 29.1258C230.742 29.2973 230.742 29.4689 230.856 29.6404C230.913 29.8119 231.028 29.9835 231.2 30.155C232.23 30.7839 233.089 29.9263 233.948 29.4117C234.005 29.2973 234.062 29.1258 234.005 28.9543Z" fill="#F8D581"/>
<path d="M235.666 28.097C235.036 26.8391 233.318 27.0678 232.46 27.6968C231.83 28.5544 233.089 29.5836 233.948 29.5836C234.349 29.3549 234.979 29.1834 235.437 28.7832C235.608 28.5544 235.723 28.3257 235.666 28.097Z" fill="#F8D581"/>
<path d="M237.44 27.2964C237.44 27.1249 237.383 27.0105 237.268 26.839C236.982 26.5531 236.639 26.3816 236.295 26.3816C236.123 26.3816 235.952 26.3816 235.78 26.3816C234.864 26.7818 233.776 27.2393 234.177 28.2684C234.807 29.2976 236.066 28.6687 237.039 28.2113C237.154 28.0969 237.268 27.9254 237.383 27.7538C237.44 27.6395 237.44 27.468 237.44 27.2964Z" fill="#F8D581"/>
<path d="M236.582 26.3813C236.181 25.4665 235.322 25.2378 234.578 25.4093C234.406 25.4665 234.177 25.5236 234.005 25.638C233.833 25.6952 233.719 25.8095 233.604 25.9239C232.917 26.7815 233.318 28.0394 234.406 27.8679C235.265 27.8679 236.066 27.6392 236.524 26.8387C236.582 26.7244 236.582 26.5528 236.582 26.3813Z" fill="#F8D581"/>
<path d="M234.635 26.324C234.577 26.0953 234.577 25.9237 234.52 25.8094C234.463 25.6378 234.406 25.5235 234.291 25.4091C234.234 25.2948 234.119 25.1804 234.005 25.1233C233.146 24.7802 231.658 24.3228 231.486 25.4091C231.371 25.8094 231.429 26.1524 231.6 26.3811C231.715 26.4955 231.829 26.6099 232.001 26.667C232.745 27.2388 233.604 27.0673 234.463 26.7242C234.52 26.6099 234.577 26.4955 234.635 26.324Z" fill="#F8D581"/>
<path d="M230.512 25.5807C230.169 24.5515 228.909 23.4651 227.764 24.0369C227.593 24.1512 227.478 24.2656 227.364 24.4371C227.249 24.6087 227.192 24.7802 227.192 25.0089C227.249 25.2376 227.306 25.4663 227.421 25.6378C227.535 25.8094 227.707 25.9809 227.879 26.0953C228.68 26.8957 229.539 26.2668 230.283 25.9809C230.398 25.8666 230.455 25.7522 230.512 25.5807Z" fill="#F8D581"/>
<path d="M228.395 24.7234C228.452 24.3232 228.28 23.9229 227.822 23.8658C227.65 23.8086 227.479 23.7514 227.307 23.6942C226.792 23.5799 226.162 23.6942 225.761 23.8658C225.589 23.9229 225.417 24.0373 225.246 24.1516C224.845 24.5519 224.845 25.0093 225.017 25.4095C225.131 25.6382 225.303 25.7526 225.475 25.867C225.876 26.0385 226.391 26.0385 226.906 25.867C227.078 25.8098 227.25 25.7526 227.421 25.6954C227.593 25.5811 227.822 25.3524 228.223 25.1237C228.395 25.0093 228.452 24.8378 228.395 24.7234Z" fill="#F8D581"/>
<path d="M232.173 25.924C232.288 25.1807 231.658 24.7233 231.028 24.323C230.398 24.0943 228.91 24.952 229.368 25.8096C229.425 25.924 229.54 26.0955 229.654 26.2099C229.769 26.3242 229.94 26.4386 230.055 26.5529C230.627 26.4386 231.028 27.0675 231.543 26.7245C231.715 26.6673 231.83 26.5529 231.944 26.3814C232.059 26.2099 232.116 26.0955 232.173 25.924Z" fill="#F8D581"/>
<path d="M220.093 30.727C219.864 29.9837 219.406 29.5834 218.776 29.8121C218.375 30.0408 217.917 30.2124 217.917 30.8413C218.146 31.8705 219.807 32.3279 219.979 31.1844C220.093 31.0129 220.093 30.8985 220.093 30.727Z" fill="#F8D581"/>
<path d="M216.486 27.1819C216.371 27.4106 216.257 27.5821 216.257 27.8108C216.257 27.6965 216.199 27.5249 216.199 27.4106C215.97 27.3534 215.856 27.1819 215.913 26.7816C215.913 26.6101 215.856 26.4386 215.856 26.267C215.856 25.9811 215.913 25.7524 215.97 25.4666C215.97 25.5809 215.97 25.6953 216.028 25.8096C215.97 26.2099 216.085 26.6101 216.371 26.9532C216.428 27.0675 216.486 27.1247 216.486 27.1819Z" fill="#F8D581"/>
<path d="M237.325 27.8108C237.268 27.9824 237.154 28.0967 237.039 28.2111C236.524 28.497 235.894 28.7829 235.322 28.84C235.035 29.0687 234.692 29.2403 234.348 29.3546C233.833 29.6405 233.318 29.9264 232.803 30.1551C232.688 30.2123 232.574 30.2695 232.459 30.3266C232.173 30.8412 231.829 30.8412 231.486 31.0699C231.314 31.1271 231.2 31.1843 231.028 31.2415C230.684 31.3558 230.284 31.2415 229.997 31.0128C229.539 31.2986 228.967 31.413 228.509 31.3558C228.394 31.4702 228.28 31.5274 228.051 31.5274C227.936 31.5845 227.765 31.6417 227.65 31.6989C227.478 31.7561 227.364 31.7561 227.192 31.7561C227.02 31.7561 226.848 31.7561 226.734 31.7561C226.619 31.7561 226.562 31.6989 226.448 31.6989C225.761 32.1563 224.959 32.5565 224.215 32.2135C223.585 32.7281 222.784 32.9568 221.982 32.4994C221.753 32.385 221.581 32.1563 221.467 31.9848C221.467 31.9848 221.467 31.9848 221.41 31.9848C221.295 32.042 221.123 32.0991 221.009 32.1563C220.608 32.2707 220.207 32.2707 219.921 32.0991C219.807 32.0419 219.749 31.9276 219.692 31.7561C219.177 32.0991 218.203 31.6989 218.032 30.9556C217.631 31.0128 217.23 30.9556 216.944 30.6697C216.6 30.3266 216.371 29.812 216.658 29.2974C216.6 29.2403 216.429 29.0687 216.429 29.0116C216.257 28.7829 215.799 28.0395 216.314 27.4678C216.371 27.6393 216.486 28.5541 216.658 28.6685C216.829 28.84 217.001 28.8972 217.173 28.9544C217.402 29.0116 217.574 29.0116 217.803 29.0116C217.86 29.1831 217.974 29.3546 218.089 29.5262C218.204 29.6405 218.375 29.812 218.547 29.8692C218.719 29.9264 218.891 29.9836 219.12 30.0407C219.234 30.0407 219.692 29.812 219.921 30.3266C220.093 30.441 220.265 30.4982 220.436 30.4982C220.608 30.4982 220.837 30.4982 221.066 30.441C222.44 31.0699 223.7 31.0699 225.188 30.8412C225.417 30.8412 225.589 30.8412 225.818 30.7841C225.932 30.7269 226.104 30.7269 226.219 30.6697C226.791 30.2695 227.192 30.441 227.879 30.3838C228.051 30.3838 228.223 30.3838 228.394 30.3266C228.566 30.2695 228.738 30.2123 228.852 30.1551C229.768 29.9836 229.94 29.9836 230.684 30.2123C230.856 30.2695 231.944 30.0407 232.116 30.0407C232.287 29.9836 232.459 29.9264 232.631 29.9264C232.803 29.812 233.032 29.7549 233.203 29.6977C233.375 29.5833 233.604 29.469 233.719 29.2403C233.89 29.0116 234.348 29.0116 234.577 28.9544C234.749 28.8972 234.864 28.84 235.035 28.7828C235.322 28.6685 235.608 28.5541 235.894 28.3826C236.238 28.2683 236.638 28.0967 236.982 27.9252C237.096 27.868 237.211 27.8108 237.325 27.8108Z" fill="#F4C960"/>
<path d="M224.616 29.0685C224.673 29.0113 224.73 28.8969 224.787 28.8398C224.73 28.8398 224.73 28.8969 224.673 28.8969C224.272 29.1828 223.871 29.2972 223.528 29.1257C223.413 29.0685 223.299 28.9541 223.184 28.8398C222.726 29.3544 221.581 29.1828 221.123 28.4395C220.723 28.6111 220.265 28.6682 219.864 28.4395C219.635 28.3252 219.463 28.1536 219.291 27.9249C219.177 28.4967 219.52 28.8969 219.978 29.1828C220.322 29.3544 220.723 29.3544 221.066 29.1828C221.467 29.8689 222.497 29.9833 222.898 29.5259C223.013 29.6402 223.127 29.7546 223.242 29.8118C223.585 29.9261 223.929 29.8118 224.272 29.5831C224.329 29.5259 224.444 29.4687 224.501 29.4115C224.501 29.2972 224.558 29.1828 224.616 29.0685Z" fill="#F4C960"/>
<path d="M233.375 27.9825C233.146 28.2684 232.86 28.3828 232.574 28.3256C232.516 28.44 232.459 28.4971 232.345 28.4971C232.287 28.5543 232.173 28.6687 232.116 28.6687C232.058 28.7258 231.944 28.7258 231.887 28.783C231.829 28.783 231.715 28.783 231.6 28.783C231.543 28.783 231.486 28.783 231.429 28.7258C231.314 28.8974 231.142 29.0689 231.028 29.2404C231.085 29.2404 231.2 29.2404 231.257 29.2404C231.314 29.2404 231.429 29.1833 231.486 29.1833C231.543 29.1261 231.6 29.0689 231.658 29.0117C231.772 28.9546 231.829 28.8974 231.887 28.8402C232.116 28.8974 232.402 28.783 232.574 28.4971C232.745 28.6687 232.917 28.7258 233.089 28.6115C233.146 28.5543 233.261 28.4971 233.318 28.44C233.432 28.2684 233.547 28.2112 233.661 28.0397C233.604 28.1541 233.49 28.0969 233.375 27.9825Z" fill="#F4C960"/>
<path d="M203.261 35.0724C203.146 35.0152 203.089 35.0724 203.032 35.1867L202.975 35.3582C202.917 35.4726 202.975 35.5298 203.089 35.587L247.803 54.8557C247.917 54.9128 247.974 54.8557 248.032 54.7413L248.547 53.5978C248.604 53.4834 248.547 53.369 248.432 53.369L203.261 35.0724Z" fill="#DBAC7A"/>
<path d="M248.032 54.6267L247.974 54.7411C247.917 54.8554 247.803 54.8554 247.745 54.8554L203.032 35.5867C202.917 35.5296 202.917 35.4724 202.917 35.358L248.032 54.6267Z" fill="#A1764F"/>
<path d="M202.576 36.3875C202.461 36.3304 202.404 36.3875 202.347 36.5019L202.289 36.6734C202.232 36.7878 202.289 36.845 202.347 36.9021L246.602 57.2C246.716 57.2572 246.774 57.2 246.831 57.0857L247.346 55.9421C247.404 55.8278 247.346 55.7134 247.232 55.7134L202.576 36.3875Z" fill="#DBAC7A"/>
<path d="M246.887 57.0285L246.829 57.1428C246.772 57.2572 246.658 57.2572 246.6 57.2572L202.345 36.9593C202.23 36.9021 202.23 36.7878 202.288 36.7306L246.887 57.0285Z" fill="#A1764F"/>
<path d="M255.875 29.7548C255.875 33.9859 252.44 37.4165 248.203 37.4165C243.967 37.4165 240.532 33.9859 240.532 29.7548C240.532 25.5236 243.967 22.093 248.203 22.093C252.497 22.1502 255.875 25.5236 255.875 29.7548Z" fill="#E1FDFF"/>
<path d="M254.558 29.7547C254.558 33.2425 251.753 36.1014 248.203 36.1014C244.711 36.1014 241.848 33.2997 241.848 29.7547C241.848 26.2669 244.711 23.4081 248.203 23.4081C251.753 23.4653 254.558 26.2669 254.558 29.7547Z" fill="#C1554D"/>
<path opacity="0.4" d="M243.681 31.4129C243.681 27.9251 246.543 25.0662 250.035 25.0662C251.295 25.0662 252.44 25.4093 253.413 26.0382C252.268 24.4373 250.379 23.4081 248.261 23.4081C244.768 23.4081 241.906 26.2098 241.906 29.7547C241.906 31.9846 243.051 33.9859 244.826 35.0722C244.081 34.043 243.681 32.7851 243.681 31.4129Z" fill="#B24D45"/>
<path d="M246.371 33.986C247.001 34.4435 247.803 34.7294 248.661 34.7294C251.009 34.8437 252.955 33.0712 253.07 30.7841C253.127 29.8121 252.784 28.8973 252.211 28.154C251.868 27.6966 251.181 27.9253 251.181 28.497V28.5542C251.181 30.7841 249.177 32.671 246.887 32.6138H246.829C246.085 32.5566 245.742 33.5286 246.371 33.986Z" fill="#C7635A"/>
<path d="M245.435 42.5073C245.97 39.2029 243.721 36.0908 240.413 35.5562C237.104 35.0216 233.988 37.2671 233.453 40.5715C232.917 43.8759 235.166 46.988 238.474 47.5226C241.783 48.0572 244.899 45.8117 245.435 42.5073Z" fill="#E1FDFF"/>
<path d="M239.444 46.908C242.416 46.908 244.825 44.5017 244.825 41.5333C244.825 38.565 242.416 36.1587 239.444 36.1587C236.471 36.1587 234.062 38.565 234.062 41.5333C234.062 44.5017 236.471 46.908 239.444 46.908Z" fill="#F8D581"/>
<path d="M235.551 42.9626C235.551 39.9894 237.955 37.588 240.932 37.588C242.02 37.588 242.993 37.8738 243.795 38.4456C242.821 37.0734 241.218 36.2157 239.444 36.2157C236.467 36.2157 234.062 38.6171 234.062 41.5904C234.062 43.4772 235.035 45.1353 236.524 46.1073C235.951 45.1925 235.551 44.1061 235.551 42.9626Z" fill="#F8D581"/>
<path d="M237.84 45.0783C238.413 45.4786 239.043 45.7073 239.787 45.7073C241.791 45.7645 243.451 44.2778 243.508 42.391C243.565 41.5905 243.279 40.79 242.821 40.1611C242.535 39.818 241.962 39.9896 241.962 40.447C241.962 40.447 241.962 40.447 241.962 40.5042C241.962 42.391 240.302 43.992 238.356 43.9348H238.298C237.611 43.9348 237.325 44.7353 237.84 45.0783Z" fill="#FFE29C"/>
</g>
</svg>
