<?xml version="1.0" encoding="utf-8"?>
<!-- Generator: Adobe Illustrator 23.0.3, SVG Export Plug-In . SVG Version: 6.00 Build 0)  -->
<svg version="1.1" id="Layer_1" xmlns="http://www.w3.org/2000/svg" xmlns:xlink="http://www.w3.org/1999/xlink" x="0px" y="0px"
	 viewBox="0 0 60.7 60.7" style="enable-background:new 0 0 60.7 60.7;" xml:space="preserve">
<style type="text/css">
	.st0{fill:#191919;}
</style>
<path class="st0" d="M30.3,60.7C13.6,60.7,0,47.1,0,30.3C0,13.6,13.6,0,30.3,0c16.7,0,30.3,13.6,30.3,30.3
	C60.7,47.1,47.1,60.7,30.3,60.7z M30.3,4C15.8,4,4,15.8,4,30.3c0,14.5,11.8,26.3,26.3,26.3c14.5,0,26.3-11.8,26.3-26.3
	C56.7,15.8,44.9,4,30.3,4z"/>
<circle class="st0" cx="19.8" cy="24.4" r="3.5"/>
<circle class="st0" cx="40.5" cy="24.4" r="3.5"/>
<g>
	<g>
		<path class="st0" d="M41.2,42.3H19.5c-1.1,0-2-0.9-2-2s0.9-2,2-2h21.7c1.1,0,2,0.9,2,2S42.3,42.3,41.2,42.3z"/>
	</g>
</g>
</svg>
