<?xml version="1.0" encoding="UTF-8" standalone="no"?> <svg width="64" height="64" viewBox="0 0 64 64" fill="none" xmlns="http://www.w3.org/2000/svg">
<path d="M61.06 2.93998C60.8633 2.74433 60.6161 2.60709 60.346 2.54354C60.0759 2.47998 59.7934 2.4926 59.53 2.57998L3.53004 21.24C3.25136 21.3375 3.00767 21.5152 2.82951 21.7506C2.65134 21.986 2.54662 22.2688 2.52847 22.5635C2.51032 22.8582 2.57954 23.1517 2.72747 23.4072C2.87539 23.6628 3.09544 23.869 3.36004 24L28.21 35.79L40 60.64C40.1316 60.9069 40.3391 61.1289 40.5965 61.2783C40.8538 61.4277 41.1496 61.4977 41.4466 61.4795C41.7436 61.4613 42.0286 61.3558 42.2658 61.1762C42.5031 60.9966 42.682 60.7509 42.78 60.47L61.44 4.46998C61.5249 4.20481 61.5344 3.92125 61.4672 3.65103C61.4001 3.38082 61.2591 3.13461 61.06 2.93998V2.93998ZM54.45 7.42998L29 32.86L8.00004 22.91L54.45 7.42998ZM41.09 56L31.09 35L56.57 9.54998L41.09 56Z" fill="black"/>
</svg>
