<?xml version="1.0" encoding="UTF-8" standalone="no"?>
<!DOCTYPE svg PUBLIC "-//W3C//DTD SVG 1.1//EN" "http://www.w3.org/Graphics/SVG/1.1/DTD/svg11.dtd">
<svg width="100%" height="100%" viewBox="0 0 330 330" version="1.1" xmlns="http://www.w3.org/2000/svg" xmlns:xlink="http://www.w3.org/1999/xlink" xml:space="preserve" xmlns:serif="http://www.serif.com/" style="fill-rule:evenodd;clip-rule:evenodd;stroke-linejoin:round;stroke-miterlimit:2;">
    <g transform="matrix(1,0,0,1,-2043,-1666)">
        <g transform="matrix(4.16667,0,0,4.16667,0,0)">
            <path d="M492.479,423.501L529.962,442.236L567.438,423.501L529.962,404.756L492.479,423.501ZM529.962,443.613C529.862,443.613 529.763,443.59 529.671,443.544L490.734,424.082C490.515,423.973 490.375,423.747 490.375,423.501C490.375,423.255 490.515,423.029 490.734,422.92L529.671,403.448C529.854,403.356 530.069,403.356 530.253,403.448L569.182,422.92C569.401,423.029 569.541,423.255 569.541,423.501C569.541,423.747 569.401,423.973 569.182,424.082L530.253,443.544C530.161,443.59 530.062,443.613 529.962,443.613Z" style="fill:rgb(239,158,32);fill-rule:nonzero;"/>
            <path d="M492.479,440.274L529.962,459.02L567.437,440.274L552.112,432.618L530.253,443.544C530.069,443.636 529.854,443.636 529.671,443.544L507.806,432.618L492.479,440.274ZM529.962,460.396C529.862,460.396 529.763,460.373 529.671,460.327L490.734,440.855C490.515,440.746 490.375,440.521 490.375,440.274C490.375,440.028 490.515,439.803 490.735,439.693L507.516,431.311C507.697,431.219 507.913,431.219 508.097,431.311L529.962,442.236L551.821,431.311C552.005,431.219 552.221,431.219 552.402,431.311L569.181,439.693C569.401,439.803 569.541,440.028 569.541,440.274C569.541,440.521 569.401,440.745 569.182,440.855L530.253,460.327C530.161,460.373 530.062,460.396 529.962,460.396Z" style="fill:rgb(239,158,32);fill-rule:nonzero;"/>
            <path d="M492.479,457.058L529.962,475.793L567.438,457.058L552.112,449.393L530.253,460.327C530.069,460.419 529.854,460.419 529.671,460.327L507.806,449.393L492.479,457.058ZM529.962,477.17C529.862,477.17 529.763,477.146 529.671,477.101L490.734,457.639C490.515,457.529 490.375,457.304 490.375,457.058C490.375,456.812 490.515,456.586 490.734,456.477L507.515,448.085C507.698,447.993 507.913,447.993 508.097,448.085L529.962,459.02L551.821,448.085C552.005,447.993 552.22,447.993 552.403,448.085L569.182,456.477C569.401,456.586 569.541,456.812 569.541,457.058C569.541,457.304 569.401,457.529 569.182,457.639L530.253,477.101C530.161,477.146 530.062,477.17 529.962,477.17Z" style="fill:rgb(239,158,32);fill-rule:nonzero;"/>
            <path d="M501.033,428.907C500.801,428.907 500.576,428.782 500.459,428.563C500.29,428.246 500.409,427.853 500.727,427.684L538.159,407.711C538.475,407.542 538.869,407.661 539.038,407.979C539.207,408.295 539.088,408.688 538.771,408.857L501.338,428.83C501.241,428.882 501.136,428.907 501.033,428.907Z" style="fill:rgb(239,158,32);fill-rule:nonzero;"/>
            <path d="M510.458,433.804C510.223,433.804 509.996,433.676 509.88,433.453C509.715,433.135 509.839,432.742 510.157,432.576L548.024,412.891C548.345,412.726 548.736,412.851 548.901,413.168C549.066,413.486 548.942,413.879 548.624,414.045L510.757,433.73C510.661,433.78 510.559,433.804 510.458,433.804Z" style="fill:rgb(239,158,32);fill-rule:nonzero;"/>
            <path d="M520,438.227C519.762,438.227 519.531,438.095 519.418,437.867C519.257,437.547 519.387,437.156 519.708,436.995L558.188,417.709C558.507,417.548 558.898,417.679 559.06,417.999C559.221,418.319 559.091,418.71 558.77,418.871L520.289,438.157C520.197,438.204 520.098,438.227 520,438.227Z" style="fill:rgb(239,158,32);fill-rule:nonzero;"/>
        </g>
    </g>
</svg>
